<svg width="101" height="100" viewBox="0 0 101 100" fill="none" xmlns="http://www.w3.org/2000/svg">
<path fill-rule="evenodd" clip-rule="evenodd" d="M8.98857 38.7738C9.37554 38.0512 9.43801 37.9443 9.58228 37.6972L9.58243 37.697C9.61286 37.6449 9.64695 37.5865 9.68848 37.5148C11.2512 34.819 13.0315 32.48 14.9252 30.6345C17.0418 28.3369 21.6932 24.1545 28.686 22.4828C29.7842 22.0876 33.0442 21.14 38.694 21.3169V21.351C48.5075 21.829 55.8135 26.4945 59.6325 32.7593C62.408 37.3131 61.1112 43.7983 56.3295 45.1048C55.019 45.4628 53.7348 45.5134 52.5735 45.2331C51.6079 45.1295 50.7791 44.6934 50.0716 44.3211L49.9704 44.2679C49.8873 44.2441 49.8043 44.2214 49.7255 44.2017C49.7117 44.1804 49.6971 44.1594 49.6827 44.1386C49.6719 44.123 49.6612 44.1075 49.6509 44.0921C46.6169 42.2817 46.0189 38.6476 46.0189 38.6476L46.0714 38.6434C45.6022 37.099 45.3963 35.6724 45.2076 34.3645C44.7301 31.0556 44.3623 28.5071 40.118 26.7366C34.4808 24.3862 28.129 27.2362 25.1066 29.4469C14.8674 36.9397 13.5895 59.8669 20.9039 71.9031C25.0624 78.7472 33.886 87.5197 46.723 83.3455C47.9074 82.9607 49.1874 82.429 50.417 81.8196C51.8578 80.9021 54.6533 78.7566 58.1654 74.2741C60.0456 71.2907 62.7359 73.7952 62.0339 75.5176C60.4523 79.4 58.1591 83.2886 55.5613 86.2897C53.2787 88.9276 50.5452 91.3328 47.4765 93.2083C46.6358 93.7203 46.9111 94.8521 47.94 94.9152C48.8564 94.971 49.7791 95 50.7092 95C75.5078 95 95.6109 74.8524 95.6109 50C95.6109 25.1466 75.5078 5 50.7092 5C30.3107 5 13.0903 18.6324 7.62237 37.3038C7.59526 37.3961 7.60193 37.3381 7.60827 37.2829C7.62061 37.1755 7.6317 37.0789 7.39011 38.1231C7.02544 39.7048 8.51986 39.6479 8.98857 38.7738ZM47.1415 52.153H74.7251C76.0331 52.153 77.0935 53.2134 77.0935 54.5214C77.0935 55.8295 76.0331 56.8899 74.7251 56.8899H55.7777H36.0482C34.2386 56.8899 33.3593 54.6781 34.6751 53.4357L42.7155 45.8435C42.9335 45.6376 43.1694 45.4209 43.4556 45.3313C44.6466 44.9587 45.1415 46.5769 45.1415 47.8248V50.153C45.1415 51.2576 46.0369 52.153 47.1415 52.153ZM34.678 64.4258H62.2616C63.3662 64.4258 64.2616 65.3213 64.2616 66.4258V68.754C64.2616 70.0019 64.7565 71.6202 65.9474 71.2475C66.2337 71.1579 66.4696 70.9412 66.6876 70.7353L74.728 63.1431C76.0437 61.9008 75.1645 59.689 73.3549 59.689H53.6253H34.678C33.3699 59.689 32.3095 60.7494 32.3095 62.0574C32.3095 63.3655 33.3699 64.4258 34.678 64.4258Z" fill="url(#paint0_radial_1020_213)" style="mix-blend-mode:darken"/>
<defs>
<radialGradient id="paint0_radial_1020_213" cx="0" cy="0" r="1" gradientUnits="userSpaceOnUse" gradientTransform="translate(69.3429 95) rotate(-109.692) scale(92.8718 91.0944)">
<stop offset="0.442708" stop-color="#042D43"/>
<stop offset="0.932292" stop-color="#03A9F4" stop-opacity="0.74026"/>
</radialGradient>
</defs>
</svg>
