<svg width="31" height="31" viewBox="0 0 31 31" fill="none" xmlns="http://www.w3.org/2000/svg">
<path fill-rule="evenodd" clip-rule="evenodd" d="M15.622 1.5C7.82312 1.5 1.5 7.82216 1.5 15.622C1.5 23.4208 7.8231 29.743 15.622 29.743C23.4219 29.743 29.744 23.4208 29.744 15.622C29.744 7.82214 23.4219 1.5 15.622 1.5ZM0.5 15.622C0.5 7.26983 7.27088 0.5 15.622 0.5C23.9741 0.5 30.744 7.26986 30.744 15.622C30.744 23.9732 23.9741 30.743 15.622 30.743C7.2709 30.743 0.5 23.9732 0.5 15.622Z" fill="#042D43" fill-opacity="0.5"/>
<path d="M25.5881 11.1906C25.3574 10.3341 24.682 9.65882 23.8253 9.42824C22.2602 9 16 9 16 9C16 9 9.73969 9 8.17462 9.41177C7.33443 9.64235 6.6425 10.3341 6.41186 11.1906C6 12.7553 6 16 6 16C6 16 6 19.2612 6.41186 20.8094C6.6425 21.6659 7.31795 22.3412 8.17462 22.5718C9.75616 23 16 23 16 23C16 23 22.2602 23 23.8253 22.5882C24.682 22.3576 25.3574 21.6824 25.5881 20.8259C25.9999 19.2612 25.9999 16.0165 25.9999 16.0165C25.9999 16.0165 26.0164 12.7553 25.5881 11.1906Z" fill="#042D43" fill-opacity="0.5"/>
<path d="M14.0066 13.0023V18.9976L19.2125 16L14.0066 13.0023Z" fill="white"/>
</svg>
