<?xml version="1.0" encoding="UTF-8"?>
<svg width="1003px" height="270px" viewBox="0 0 1003 270" version="1.1" xmlns="http://www.w3.org/2000/svg" xmlns:xlink="http://www.w3.org/1999/xlink">
    <title>CliniOps</title>
    <defs>
        <polygon id="path-1" points="0 210 943 210 943 0 0 0"></polygon>
        <path d="M969.454102,35.7080078 L965.21582,48.4570312 L963.09668,48.4570312 L958.858398,35.7421875 L958.858398,48.4570312 L955.064453,48.4570312 L955.064453,30 L959.74707,30 L964.15625,43.0224609 L968.702148,30 L973.248047,30 L973.248047,48.4570312 L969.454102,48.4570312 L969.454102,35.7080078 Z M952.535156,33.2470703 L947.818359,33.2470703 L947.818359,48.3886719 L943.819336,48.3886719 L943.819336,33.2470703 L939,33.2470703 L939,30 L952.535156,30 L952.535156,33.2470703 Z" id="path-3"></path>
    </defs>
    <g id="CliniOps" stroke="none" stroke-width="1" fill="none" fill-rule="evenodd">
        <g id="Group-12" transform="translate(30.000000, 30.000000)">
            <path d="M275.961297,129.905434 C275.961297,146.724064 283.558461,151.349187 295.5,151.349187 C307.441539,151.349187 315.038703,146.724064 315.038703,129.905434 L315.038703,119.814256 L345,119.814256 L345,126.121242 C345,163.542693 324.591934,177 295.5,177 C266.410508,177 246,163.542693 246,126.121242 L246,71.878758 C246,34.4549039 266.410508,21 295.5,21 C324.591934,21 345,34.4549039 345,71.878758 L345,72.2992238 L315.038703,72.2992238 L315.038703,68.0945663 C315.038703,51.2735338 307.441539,46.6484105 295.5,46.6484105 C283.558461,46.6484105 275.961297,51.2735338 275.961297,68.0945663 L275.961297,129.905434 Z" id="Fill-1" fill="#042D43"></path>
            <mask id="mask-2" fill="white">
                <use xlink:href="#path-1"></use>
            </mask>
            <g id="Clip-4"></g>
            <polygon id="Fill-3" fill="#042D43" mask="url(#mask-2)" points="370 170 395 170 395 20 370 20"></polygon>
            <path d="M432,37.6469936 L457,37.6469936 L457,14 L432,14 L432,37.6469936 Z M432,170 L457,170 L457,57.1469936 L432,57.1469936 L432,170 Z" id="Fill-5" fill="#042D43" mask="url(#mask-2)"></path>
            <path d="M487,170 L487,58.0566948 L513.005677,58.0566948 L513.005677,70.8149303 C522.810371,62.5833456 531.978141,56 543.061601,56 C559.474072,56 568,64.0273568 568,84.8081438 L568,170 L541.14591,170 L541.14591,87.6889582 C541.14591,80.281493 538.585919,75.3439838 531.338758,75.3439838 C525.795798,75.3439838 519.613456,80.4881236 513.859008,85.4256328 L513.859008,170 L487,170 Z" id="Fill-6" fill="#042D43" mask="url(#mask-2)"></path>
            <path d="M599.002467,37.6469936 L624,37.6469936 L624,14 L599.002467,14 L599.002467,37.6469936 Z M599,170 L623.997533,170 L623.997533,57.1469936 L599,57.1469936 L599,170 Z" id="Fill-7" fill="#042D43" mask="url(#mask-2)"></path>
            <path d="M647,70.2255749 C647,33.2835101 667.408862,20 696.5,20 C725.591138,20 746,33.2835101 746,70.2255749 L746,123.774425 C746,160.71649 725.591138,174 696.5,174 C667.408862,174 647,160.71649 647,123.774425 L647,70.2255749 Z M676.960591,127.510113 C676.960591,144.112102 684.560338,148.679808 696.5,148.679808 C708.439662,148.679808 716.039409,144.112102 716.039409,127.510113 L716.039409,66.4898874 C716.039409,49.8878976 708.439662,45.3177947 696.5,45.3177947 C684.560338,45.3177947 676.960591,49.8878976 676.960591,66.4898874 L676.960591,127.510113 Z" id="Fill-8" fill="#03A9F4" mask="url(#mask-2)"></path>
            <path d="M793.795634,58.0644267 L793.795634,71.6906022 L794.204853,71.6906022 C798.716013,64.6725104 810.205828,56 821.693207,56 C841.796121,56 850,71.6906022 850,100.590179 L850,127.840132 C850,156.739709 841.796121,172.430311 821.693207,172.430311 C814.716987,172.430311 808.157294,169.128667 795.846604,160.04375 L795.846604,210 L770,210 L770,58.0644267 L793.795634,58.0644267 Z M795.846604,144.974155 C800.974028,150.546428 805.692233,153.025659 811.438358,153.025659 C818.412143,153.025659 824.155832,148.482002 824.155832,126.188111 L824.155832,102.2422 C824.155832,79.9483091 818.412143,75.4046522 811.438358,75.4046522 C805.692233,75.4046522 800.974028,77.8838824 795.846604,83.4561562 L795.846604,144.974155 Z" id="Fill-9" fill="#03A9F4" mask="url(#mask-2)"></path>
            <path d="M919.617148,90.260738 C916.092501,80.245398 909.462168,75.4375533 901.584691,75.4375533 C895.57306,75.4375533 891.01562,79.6435146 891.01562,85.253068 C891.01562,102.081728 942,102.483786 942,134.942155 C942,156.57866 926.24748,168 904.488201,168 C888.738118,168 874.644399,164.193689 862,136.945223 L885.41808,130.736194 C887.700454,140.951359 894.126176,147.562447 904.488201,147.562447 C912.360807,147.562447 917.127729,143.955961 917.127729,137.946757 C917.127729,117.109553 866.143349,122.117223 866.143349,85.4553008 C866.143349,64.8203298 883.347624,55 901.791736,55 C921.273513,55 934.743659,65.8218638 941.169382,82.248466 L919.617148,90.260738 Z" id="Fill-10" fill="#03A9F4" mask="url(#mask-2)"></path>
            <path d="M3.84372584,78.4302529 C4.93217835,76.397908 4.91509501,76.4627701 5.46908317,75.5066552 C9.09807171,69.2462644 13.2322389,63.8146667 17.6299775,59.5289655 C22.5450971,54.1934598 33.346646,44.4809655 49.5855766,40.5988506 C52.1358745,39.6811724 59.7062325,37.4806667 72.8262341,37.8914598 L72.8262341,37.9707356 C95.6154035,39.0805977 112.581596,49.9149655 121.450288,64.4632874 C127.895586,75.0382069 124.884038,90.0982184 113.77987,93.1323218 C110.736596,93.9635172 107.754334,94.0812299 105.057607,93.4302069 C102.707428,93.1779655 100.706237,92.0777126 99.0125468,91.1888621 C98.8197492,91.1336092 98.6269515,91.0807586 98.4439158,91.0351149 C98.3877848,90.9486322 98.3267729,90.8645517 98.2706419,90.7804713 C91.2249863,86.5764483 89.8363552,78.1371724 89.8363552,78.1371724 L89.958379,78.1275632 C86.1121881,65.4674483 89.8851647,56.2137931 76.1330798,50.4771034 C63.0423639,45.0190805 48.292124,51.6374138 41.2733137,56.7711264 C17.4957513,74.170977 14.5281319,127.413126 31.5138482,155.363874 C41.1708137,171.257483 61.6610542,191.628977 91.4714745,181.935701 C94.2218915,181.042046 97.1943918,179.807264 100.049749,178.39231 C103.395643,176.261471 109.88731,171.279103 118.043382,160.869943 C122.409395,153.941713 128.657015,159.757678 127.026776,163.757506 C123.353859,172.773333 118.02874,181.803575 111.995882,188.772644 C106.695167,194.898506 100.347487,200.483851 93.2212961,204.839218 C91.2689149,206.028356 91.9083197,208.656471 94.2975462,208.803011 C96.4256417,208.932736 98.5683801,209 100.728202,209 C158.316125,209 205,162.212828 205,104.5 C205,46.7847701 158.316125,0 100.728202,0 C53.3585532,0 13.3689056,31.6574943 0.671106408,75.0165862 C0.485630195,75.6483908 0.981046921,73.2484943 0.131761105,76.9192069 C-0.715084235,80.5923218 2.75527333,80.4601954 3.84372584,78.4302529" id="Fill-11" fill="#042D43" mask="url(#mask-2)"></path>
        </g>
        <g id="™">
            <use fill="#FFFFFF" xlink:href="#path-3"></use>
            <use fill="#042D43" xlink:href="#path-3"></use>
        </g>
    </g>
</svg>