<svg width="81" height="80" viewBox="0 0 81 80" fill="none" xmlns="http://www.w3.org/2000/svg">
<path d="M41.6374 37.2607C43.2224 36.9389 44.6313 36.0396 45.5905 34.7374C46.5497 33.4352 46.9909 31.8231 46.8284 30.214C46.6658 28.6048 45.9112 27.1135 44.7109 26.0295C43.5106 24.9454 41.9504 24.346 40.3331 24.3477H38.6896C38.2575 22.6746 37.4166 21.135 36.2425 19.8672C35.0684 18.5994 33.5979 17.643 31.9628 17.0838C30.3278 16.5247 28.5796 16.3804 26.875 16.6638C25.1704 16.9472 23.5629 17.6494 22.1968 18.7075C20.8307 19.7656 19.7487 21.1465 19.048 22.726C18.3473 24.3055 18.0499 26.0343 18.1823 27.7572C18.3148 29.4801 18.8731 31.1431 19.807 32.597C20.7409 34.0508 22.0213 35.25 23.5331 36.0868" stroke="#045DE9" stroke-width="2" stroke-linecap="round" stroke-linejoin="round"/>
<path d="M41.6374 37.2607C43.2224 36.9389 44.6313 36.0396 45.5905 34.7374C46.5497 33.4352 46.9909 31.8231 46.8284 30.214C46.6658 28.6048 45.9112 27.1135 44.7109 26.0295C43.5106 24.9454 41.9504 24.346 40.3331 24.3477H38.6896C38.2575 22.6746 37.4166 21.135 36.2425 19.8672C35.0684 18.5994 33.5979 17.643 31.9628 17.0838C30.3278 16.5247 28.5796 16.3804 26.875 16.6638C25.1704 16.9472 23.5629 17.6494 22.1968 18.7075C20.8307 19.7656 19.7487 21.1465 19.048 22.726C18.3473 24.3055 18.0499 26.0343 18.1823 27.7572C18.3148 29.4801 18.8731 31.1431 19.807 32.597C20.7409 34.0508 22.0213 35.25 23.5331 36.0868" stroke="url(#paint0_linear_1020_664)" stroke-width="2" stroke-linecap="round" stroke-linejoin="round"/>
<path fill-rule="evenodd" clip-rule="evenodd" d="M47.7563 17.5972C47.2214 17.4596 46.6762 17.7816 46.5386 18.3164C46.4009 18.8513 46.7229 19.3964 47.2578 19.5341C56.953 22.0295 64.1157 30.8317 64.1157 41.3043C64.1157 53.7188 54.0518 63.7825 41.6374 63.7825C29.8544 63.7825 20.1879 54.7156 19.2362 43.1786C19.1908 42.6281 18.7078 42.2188 18.1573 42.2642C17.6069 42.3096 17.1975 42.7926 17.2429 43.343C18.2796 55.9087 28.8049 65.7825 41.6374 65.7825C55.1564 65.7825 66.1157 54.8234 66.1157 41.3043C66.1157 29.897 58.3137 20.3145 47.7563 17.5972ZM53.4444 28.6433C53.0611 28.2457 52.4281 28.2341 52.0305 28.6174C51.6329 29.0008 51.6213 29.6338 52.0046 30.0314C54.6589 32.7846 56.2897 36.5269 56.2897 40.6522C56.2897 49.1045 49.4378 55.9565 40.9854 55.9565C35.5965 55.9565 30.8574 53.1721 28.1291 48.9588C27.829 48.4952 27.2098 48.3627 26.7462 48.6629C26.2826 48.9631 26.1502 49.5822 26.4504 50.0458C29.5316 54.8043 34.8901 57.9565 40.9854 57.9565C50.5423 57.9565 58.2897 50.2091 58.2897 40.6522C58.2897 35.9887 56.4436 31.7542 53.4444 28.6433ZM49.4631 39.0002C50.0154 39.0002 50.4631 39.4479 50.4631 40.0002C50.4631 45.595 45.9276 50.1306 40.3327 50.1306C39.2003 50.1306 38.1093 49.9444 37.09 49.6002C36.5667 49.4235 36.2858 48.8561 36.4625 48.3328C36.6392 47.8096 37.2066 47.5286 37.7298 47.7053C38.5457 47.9808 39.4207 48.1306 40.3327 48.1306C44.823 48.1306 48.4631 44.4905 48.4631 40.0002C48.4631 39.4479 48.9108 39.0002 49.4631 39.0002ZM34.6435 30.1198C34.9498 29.6602 34.8256 29.0394 34.3661 28.733C33.9066 28.4267 33.2857 28.5508 32.9794 29.0104L27.762 36.8364C27.5574 37.1433 27.5383 37.5378 27.7123 37.863C27.8864 38.1882 28.2252 38.3911 28.594 38.3911H34.5516L30.3707 44.6625C30.0643 45.1221 30.1885 45.7429 30.648 46.0493C31.1075 46.3556 31.7284 46.2315 32.0348 45.7719L37.2522 37.9458C37.4567 37.639 37.4758 37.2444 37.3018 36.9193C37.1278 36.5941 36.7889 36.3911 36.4201 36.3911H30.4625L34.6435 30.1198Z" fill="#045DE9"/>
<path fill-rule="evenodd" clip-rule="evenodd" d="M47.7563 17.5972C47.2214 17.4596 46.6762 17.7816 46.5386 18.3164C46.4009 18.8513 46.7229 19.3964 47.2578 19.5341C56.953 22.0295 64.1157 30.8317 64.1157 41.3043C64.1157 53.7188 54.0518 63.7825 41.6374 63.7825C29.8544 63.7825 20.1879 54.7156 19.2362 43.1786C19.1908 42.6281 18.7078 42.2188 18.1573 42.2642C17.6069 42.3096 17.1975 42.7926 17.2429 43.343C18.2796 55.9087 28.8049 65.7825 41.6374 65.7825C55.1564 65.7825 66.1157 54.8234 66.1157 41.3043C66.1157 29.897 58.3137 20.3145 47.7563 17.5972ZM53.4444 28.6433C53.0611 28.2457 52.4281 28.2341 52.0305 28.6174C51.6329 29.0008 51.6213 29.6338 52.0046 30.0314C54.6589 32.7846 56.2897 36.5269 56.2897 40.6522C56.2897 49.1045 49.4378 55.9565 40.9854 55.9565C35.5965 55.9565 30.8574 53.1721 28.1291 48.9588C27.829 48.4952 27.2098 48.3627 26.7462 48.6629C26.2826 48.9631 26.1502 49.5822 26.4504 50.0458C29.5316 54.8043 34.8901 57.9565 40.9854 57.9565C50.5423 57.9565 58.2897 50.2091 58.2897 40.6522C58.2897 35.9887 56.4436 31.7542 53.4444 28.6433ZM49.4631 39.0002C50.0154 39.0002 50.4631 39.4479 50.4631 40.0002C50.4631 45.595 45.9276 50.1306 40.3327 50.1306C39.2003 50.1306 38.1093 49.9444 37.09 49.6002C36.5667 49.4235 36.2858 48.8561 36.4625 48.3328C36.6392 47.8096 37.2066 47.5286 37.7298 47.7053C38.5457 47.9808 39.4207 48.1306 40.3327 48.1306C44.823 48.1306 48.4631 44.4905 48.4631 40.0002C48.4631 39.4479 48.9108 39.0002 49.4631 39.0002ZM34.6435 30.1198C34.9498 29.6602 34.8256 29.0394 34.3661 28.733C33.9066 28.4267 33.2857 28.5508 32.9794 29.0104L27.762 36.8364C27.5574 37.1433 27.5383 37.5378 27.7123 37.863C27.8864 38.1882 28.2252 38.3911 28.594 38.3911H34.5516L30.3707 44.6625C30.0643 45.1221 30.1885 45.7429 30.648 46.0493C31.1075 46.3556 31.7284 46.2315 32.0348 45.7719L37.2522 37.9458C37.4567 37.639 37.4758 37.2444 37.3018 36.9193C37.1278 36.5941 36.7889 36.3911 36.4201 36.3911H30.4625L34.6435 30.1198Z" fill="url(#paint1_linear_1020_664)"/>
<defs>
<linearGradient id="paint0_linear_1020_664" x1="24.2753" y1="36.8514" x2="47.8143" y2="29.4937" gradientUnits="userSpaceOnUse">
<stop stop-color="#045DE9"/>
<stop offset="1" stop-color="#09C6F9" stop-opacity="0.74"/>
</linearGradient>
<linearGradient id="paint1_linear_1020_664" x1="27.6646" y1="64.8309" x2="69.4637" y2="55.2642" gradientUnits="userSpaceOnUse">
<stop stop-color="#045DE9"/>
<stop offset="1" stop-color="#09C6F9" stop-opacity="0.74"/>
</linearGradient>
</defs>
</svg>
