<svg width="81" height="80" viewBox="0 0 81 80" fill="none" xmlns="http://www.w3.org/2000/svg">
<g clip-path="url(#clip0_1020_688)">
<g style="mix-blend-mode:multiply">
<g style="mix-blend-mode:multiply">
<path d="M38.8659 47.8262V45.727C38.8659 44.7478 39.6597 43.9538 40.639 43.9538C41.6182 43.9538 42.4121 44.7478 42.4121 45.727V49.0173C42.4121 50.2279 41.4306 51.2094 40.2201 51.2094H35.8903C34.4721 51.2094 33.3224 50.0596 33.3224 48.6414C33.3224 43.587 27.2898 38.0436 27.2898 31.3588V30.7678C27.2898 23.6203 33.0228 17.8262 40.1702 17.8262C47.3177 17.8262 53.0507 23.6203 53.0507 30.7678V31.3588C53.0507 38.0436 47.0181 43.587 47.0181 48.6414V50.5116C47.0181 52.833 45.1361 54.7147 42.8145 54.7147H37.6583C36.6369 54.7147 35.8088 55.5428 35.8088 56.5643C35.8088 57.5857 36.6369 58.4138 37.6583 58.4138H42.4783C43.4998 58.4138 44.3278 59.2418 44.3278 60.2634C44.3278 61.2848 43.4998 62.1128 42.4783 62.1128H36.2164" stroke="#045DE9" stroke-width="1.8" stroke-linecap="round" stroke-linejoin="round"/>
<path d="M38.8659 47.8262V45.727C38.8659 44.7478 39.6597 43.9538 40.639 43.9538C41.6182 43.9538 42.4121 44.7478 42.4121 45.727V49.0173C42.4121 50.2279 41.4306 51.2094 40.2201 51.2094H35.8903C34.4721 51.2094 33.3224 50.0596 33.3224 48.6414C33.3224 43.587 27.2898 38.0436 27.2898 31.3588V30.7678C27.2898 23.6203 33.0228 17.8262 40.1702 17.8262C47.3177 17.8262 53.0507 23.6203 53.0507 30.7678V31.3588C53.0507 38.0436 47.0181 43.587 47.0181 48.6414V50.5116C47.0181 52.833 45.1361 54.7147 42.8145 54.7147H37.6583C36.6369 54.7147 35.8088 55.5428 35.8088 56.5643C35.8088 57.5857 36.6369 58.4138 37.6583 58.4138H42.4783C43.4998 58.4138 44.3278 59.2418 44.3278 60.2634C44.3278 61.2848 43.4998 62.1128 42.4783 62.1128H36.2164" stroke="url(#paint0_linear_1020_688)" stroke-width="1.8" stroke-linecap="round" stroke-linejoin="round"/>
</g>
<path fill-rule="evenodd" clip-rule="evenodd" d="M30.2897 28.4195C30.4005 28.2126 30.3988 28.2192 30.4552 28.1218C30.8246 27.4845 31.2455 26.9316 31.6932 26.4953C32.1936 25.9521 33.2932 24.9633 34.9464 24.5681C35.206 24.4747 35.9767 24.2507 37.3123 24.2925V24.3006C39.6323 24.4136 41.3596 25.5165 42.2624 26.9976C42.9186 28.0742 42.612 29.6073 41.4815 29.9162C41.1717 30.0008 40.8681 30.0128 40.5936 29.9465C40.3543 29.9208 40.1506 29.8088 39.9782 29.7183C39.9586 29.7127 39.9389 29.7073 39.9203 29.7027C39.9146 29.6939 39.9084 29.6853 39.9027 29.6768C39.1854 29.2488 39.044 28.3896 39.044 28.3896L39.0564 28.3887C38.6649 27.0998 39.049 26.1578 37.649 25.5738C36.3163 25.0181 34.8147 25.6919 34.1002 26.2145C31.6796 27.9859 31.3774 33.4061 33.1066 36.2515C34.0897 37.8695 36.1757 39.9434 39.2105 38.9566C39.4905 38.8656 39.7931 38.7399 40.0838 38.5959C40.4244 38.379 41.0853 37.8717 41.9156 36.8121C42.3601 36.1067 42.9961 36.6988 42.8301 37.106C42.4562 38.0239 41.9141 38.9432 41.2999 39.6526C40.7603 40.2763 40.1141 40.8449 39.3886 41.2883C39.1899 41.4093 39.255 41.6769 39.4982 41.6918C39.7148 41.705 39.933 41.7118 40.1528 41.7118C46.0155 41.7118 50.768 36.9488 50.768 31.0734C50.768 25.1979 46.0155 20.4351 40.1528 20.4351C35.3305 20.4351 31.2594 23.6579 29.9668 28.072C29.9479 28.1363 29.9983 27.892 29.9119 28.2656C29.8256 28.6396 30.1789 28.6261 30.2897 28.4195Z" fill="#045DE9"/>
<path fill-rule="evenodd" clip-rule="evenodd" d="M30.2897 28.4195C30.4005 28.2126 30.3988 28.2192 30.4552 28.1218C30.8246 27.4845 31.2455 26.9316 31.6932 26.4953C32.1936 25.9521 33.2932 24.9633 34.9464 24.5681C35.206 24.4747 35.9767 24.2507 37.3123 24.2925V24.3006C39.6323 24.4136 41.3596 25.5165 42.2624 26.9976C42.9186 28.0742 42.612 29.6073 41.4815 29.9162C41.1717 30.0008 40.8681 30.0128 40.5936 29.9465C40.3543 29.9208 40.1506 29.8088 39.9782 29.7183C39.9586 29.7127 39.9389 29.7073 39.9203 29.7027C39.9146 29.6939 39.9084 29.6853 39.9027 29.6768C39.1854 29.2488 39.044 28.3896 39.044 28.3896L39.0564 28.3887C38.6649 27.0998 39.049 26.1578 37.649 25.5738C36.3163 25.0181 34.8147 25.6919 34.1002 26.2145C31.6796 27.9859 31.3774 33.4061 33.1066 36.2515C34.0897 37.8695 36.1757 39.9434 39.2105 38.9566C39.4905 38.8656 39.7931 38.7399 40.0838 38.5959C40.4244 38.379 41.0853 37.8717 41.9156 36.8121C42.3601 36.1067 42.9961 36.6988 42.8301 37.106C42.4562 38.0239 41.9141 38.9432 41.2999 39.6526C40.7603 40.2763 40.1141 40.8449 39.3886 41.2883C39.1899 41.4093 39.255 41.6769 39.4982 41.6918C39.7148 41.705 39.933 41.7118 40.1528 41.7118C46.0155 41.7118 50.768 36.9488 50.768 31.0734C50.768 25.1979 46.0155 20.4351 40.1528 20.4351C35.3305 20.4351 31.2594 23.6579 29.9668 28.072C29.9479 28.1363 29.9983 27.892 29.9119 28.2656C29.8256 28.6396 30.1789 28.6261 30.2897 28.4195Z" fill="url(#paint1_linear_1020_688)"/>
</g>
</g>
<defs>
<linearGradient id="paint0_linear_1020_688" x1="32.7845" y1="61.2387" x2="55.5761" y2="58.2454" gradientUnits="userSpaceOnUse">
<stop stop-color="#045DE9"/>
<stop offset="1" stop-color="#09C6F9" stop-opacity="0.74"/>
</linearGradient>
<linearGradient id="paint1_linear_1020_688" x1="34.3498" y1="41.2919" x2="52.2543" y2="37.3267" gradientUnits="userSpaceOnUse">
<stop stop-color="#045DE9"/>
<stop offset="1" stop-color="#09C6F9" stop-opacity="0.74"/>
</linearGradient>
<clipPath id="clip0_1020_688">
<rect width="28.6957" height="46.9565" fill="white" transform="translate(25.9854 16.522)"/>
</clipPath>
</defs>
</svg>
