<svg width="80" height="80" viewBox="0 0 80 80" fill="none" xmlns="http://www.w3.org/2000/svg">
<path fill-rule="evenodd" clip-rule="evenodd" d="M56.379 32.7554C54.9812 24.7448 48.1161 18.8392 39.9866 18.6539C31.857 18.4687 24.7301 24.0552 22.9687 31.9938C21.8741 36.9269 23.0407 41.9137 25.8692 45.7681C26.1959 46.2134 26.1393 46.8422 25.714 47.1945L25.6158 47.2758C25.1905 47.6281 24.5577 47.5703 24.2281 47.1271C20.9946 42.7799 19.6508 37.1262 20.8918 31.533C22.8732 22.6029 30.8903 16.3186 40.035 16.527C49.18 16.7356 56.9023 23.3786 58.4747 32.3897C59.4067 37.7302 58.024 43.0196 54.9682 47.1272C54.6385 47.5703 54.0058 47.6281 53.5805 47.2758L53.4824 47.1945C53.0571 46.8422 53.0005 46.2134 53.3272 45.7682C55.9993 42.1275 57.2006 37.4637 56.379 32.7554ZM39.8765 24.1795C45.6986 24.3122 50.6152 28.5417 51.6163 34.2786C52.1875 37.5519 51.3936 40.7951 49.5958 43.3674C49.2795 43.8201 49.3349 44.4484 49.7603 44.8007L49.8584 44.882C50.2837 45.2342 50.9173 45.1769 51.2391 44.7281C53.4195 41.6871 54.3935 37.8183 53.712 33.913C52.5364 27.1755 46.7624 22.2085 39.9249 22.0527C33.0874 21.8968 27.0933 26.5954 25.6118 33.2724C24.7031 37.3675 25.6479 41.5061 27.9574 44.728C28.2792 45.1768 28.9128 45.2342 29.3381 44.8819L29.4362 44.8007C29.8616 44.4484 29.917 43.8201 29.6007 43.3674C27.6951 40.64 26.9265 37.1684 27.6887 33.7332C28.9501 28.0477 34.0543 24.0467 39.8765 24.1795ZM39.7687 29.2791C43.3233 29.3601 46.325 31.9423 46.9361 35.4449C47.2612 37.3077 46.8622 39.1547 45.9172 40.6691C45.6249 41.1377 45.6775 41.7652 46.1028 42.1175L46.2009 42.1987C46.6262 42.551 47.2616 42.4943 47.5677 42.0346C48.8916 40.0465 49.4673 37.574 49.0319 35.0792C48.246 30.5762 44.3871 27.2563 39.8172 27.1523C35.2473 27.048 31.241 30.1885 30.2509 34.6511C29.6689 37.274 30.2246 39.9233 31.63 42.0345C31.9361 42.4942 32.5714 42.5509 32.9967 42.1987L33.0948 42.1174C33.5201 41.7652 33.5728 41.1376 33.2806 40.669C32.2754 39.0575 31.8922 37.0748 32.3278 35.1119C33.0979 31.6408 36.2141 29.198 39.7687 29.2791ZM38.7626 36.6014C38.7626 36.014 39.2388 35.5377 39.8263 35.5377C40.4138 35.5377 40.89 36.014 40.89 36.6014V46.763C40.89 47.2084 41.1846 47.6001 41.6125 47.7237L50.0965 50.1746C50.9457 50.4223 51.4544 51.2901 51.2563 52.1524L51.07 52.9565L49.6168 60.9562C49.5181 61.4996 49.8786 62.0201 50.4219 62.1188L50.5473 62.1416C51.0906 62.2403 51.6112 61.8798 51.7099 61.3364L53.1541 53.387L53.3294 52.6295C53.781 50.6678 52.6233 48.6946 50.6905 48.1317L43.0174 45.9151V36.6014C43.0174 34.839 41.5887 33.4103 39.8263 33.4103C38.0639 33.4103 36.6352 34.839 36.6352 36.6014V50.1334C35.253 48.6935 33.6571 47.999 32.2537 48.0018C31.1738 48.0042 30.0651 48.4512 29.5492 49.5082C29.0367 50.5582 29.313 51.7957 30.0652 52.944L36.0251 61.8879C36.3314 62.3475 36.9522 62.4718 37.4118 62.1656L37.5178 62.095C37.9774 61.7887 38.1018 61.1678 37.7955 60.7082L31.8427 51.775C31.3049 50.9524 31.4105 50.5448 31.461 50.4413C31.5082 50.3446 31.6963 50.1305 32.2582 50.1293C33.2658 50.1272 35.0395 50.9155 36.3699 53.3702C36.5948 53.7851 37.0576 54.0266 37.5192 53.9282L37.9711 53.8319C38.4326 53.7335 38.7626 53.3258 38.7626 52.8539V36.6014Z" fill="#045DE9"/>
<path fill-rule="evenodd" clip-rule="evenodd" d="M56.379 32.7554C54.9812 24.7448 48.1161 18.8392 39.9866 18.6539C31.857 18.4687 24.7301 24.0552 22.9687 31.9938C21.8741 36.9269 23.0407 41.9137 25.8692 45.7681C26.1959 46.2134 26.1393 46.8422 25.714 47.1945L25.6158 47.2758C25.1905 47.6281 24.5577 47.5703 24.2281 47.1271C20.9946 42.7799 19.6508 37.1262 20.8918 31.533C22.8732 22.6029 30.8903 16.3186 40.035 16.527C49.18 16.7356 56.9023 23.3786 58.4747 32.3897C59.4067 37.7302 58.024 43.0196 54.9682 47.1272C54.6385 47.5703 54.0058 47.6281 53.5805 47.2758L53.4824 47.1945C53.0571 46.8422 53.0005 46.2134 53.3272 45.7682C55.9993 42.1275 57.2006 37.4637 56.379 32.7554ZM39.8765 24.1795C45.6986 24.3122 50.6152 28.5417 51.6163 34.2786C52.1875 37.5519 51.3936 40.7951 49.5958 43.3674C49.2795 43.8201 49.3349 44.4484 49.7603 44.8007L49.8584 44.882C50.2837 45.2342 50.9173 45.1769 51.2391 44.7281C53.4195 41.6871 54.3935 37.8183 53.712 33.913C52.5364 27.1755 46.7624 22.2085 39.9249 22.0527C33.0874 21.8968 27.0933 26.5954 25.6118 33.2724C24.7031 37.3675 25.6479 41.5061 27.9574 44.728C28.2792 45.1768 28.9128 45.2342 29.3381 44.8819L29.4362 44.8007C29.8616 44.4484 29.917 43.8201 29.6007 43.3674C27.6951 40.64 26.9265 37.1684 27.6887 33.7332C28.9501 28.0477 34.0543 24.0467 39.8765 24.1795ZM39.7687 29.2791C43.3233 29.3601 46.325 31.9423 46.9361 35.4449C47.2612 37.3077 46.8622 39.1547 45.9172 40.6691C45.6249 41.1377 45.6775 41.7652 46.1028 42.1175L46.2009 42.1987C46.6262 42.551 47.2616 42.4943 47.5677 42.0346C48.8916 40.0465 49.4673 37.574 49.0319 35.0792C48.246 30.5762 44.3871 27.2563 39.8172 27.1523C35.2473 27.048 31.241 30.1885 30.2509 34.6511C29.6689 37.274 30.2246 39.9233 31.63 42.0345C31.9361 42.4942 32.5714 42.5509 32.9967 42.1987L33.0948 42.1174C33.5201 41.7652 33.5728 41.1376 33.2806 40.669C32.2754 39.0575 31.8922 37.0748 32.3278 35.1119C33.0979 31.6408 36.2141 29.198 39.7687 29.2791ZM38.7626 36.6014C38.7626 36.014 39.2388 35.5377 39.8263 35.5377C40.4138 35.5377 40.89 36.014 40.89 36.6014V46.763C40.89 47.2084 41.1846 47.6001 41.6125 47.7237L50.0965 50.1746C50.9457 50.4223 51.4544 51.2901 51.2563 52.1524L51.07 52.9565L49.6168 60.9562C49.5181 61.4996 49.8786 62.0201 50.4219 62.1188L50.5473 62.1416C51.0906 62.2403 51.6112 61.8798 51.7099 61.3364L53.1541 53.387L53.3294 52.6295C53.781 50.6678 52.6233 48.6946 50.6905 48.1317L43.0174 45.9151V36.6014C43.0174 34.839 41.5887 33.4103 39.8263 33.4103C38.0639 33.4103 36.6352 34.839 36.6352 36.6014V50.1334C35.253 48.6935 33.6571 47.999 32.2537 48.0018C31.1738 48.0042 30.0651 48.4512 29.5492 49.5082C29.0367 50.5582 29.313 51.7957 30.0652 52.944L36.0251 61.8879C36.3314 62.3475 36.9522 62.4718 37.4118 62.1656L37.5178 62.095C37.9774 61.7887 38.1018 61.1678 37.7955 60.7082L31.8427 51.775C31.3049 50.9524 31.4105 50.5448 31.461 50.4413C31.5082 50.3446 31.6963 50.1305 32.2582 50.1293C33.2658 50.1272 35.0395 50.9155 36.3699 53.3702C36.5948 53.7851 37.0576 54.0266 37.5192 53.9282L37.9711 53.8319C38.4326 53.7335 38.7626 53.3258 38.7626 52.8539V36.6014Z" fill="url(#paint0_linear_1020_711)"/>
<defs>
<linearGradient id="paint0_linear_1020_711" x1="28.6098" y1="61.4293" x2="61.9155" y2="55.138" gradientUnits="userSpaceOnUse">
<stop stop-color="#045DE9"/>
<stop offset="1" stop-color="#09C6F9" stop-opacity="0.74"/>
</linearGradient>
</defs>
</svg>
