<svg width="61" height="60" viewBox="0 0 61 60" fill="none" xmlns="http://www.w3.org/2000/svg">
<path fill-rule="evenodd" clip-rule="evenodd" d="M31.1186 7.74886L31.119 7.74906L50.3954 18.3748C51.0151 18.7087 51.3902 19.3597 51.3902 20.0541V38.8813C51.3902 39.5789 51.0049 40.2153 50.4105 40.5522L50.4003 40.558L50.4003 40.5579L31.1191 51.1863L31.1186 51.1866C30.82 51.3513 30.4917 51.4313 30.1642 51.4265C30.1501 51.4271 30.136 51.4274 30.1218 51.4274C30.0557 51.4274 29.9912 51.4208 29.9288 51.4083C29.7 51.3763 29.4754 51.3024 29.2654 51.1866L29.2649 51.1863L9.98853 40.5606C9.36914 40.2268 8.99365 39.576 8.99365 38.8813V20.0541C8.99365 19.7182 9.08302 19.3965 9.24203 19.1156C9.26261 19.0372 9.29334 18.9601 9.33472 18.8861C9.4615 18.6593 9.66516 18.5025 9.89489 18.4303C9.92071 18.4139 9.94697 18.3982 9.97365 18.3831L9.98367 18.3774L9.98371 18.3775L29.265 7.74906L29.2652 7.74896L29.2654 7.74886C29.8458 7.42876 30.5382 7.42876 31.1186 7.74886ZM31.1001 48.9627L49.4337 38.8567V20.8371L31.1001 31.0799V48.9627ZM29.1435 31.0793V48.8853L10.9502 38.8566V20.9098L18.7622 25.2765V32.5507C18.7622 33.091 19.2002 33.529 19.7405 33.529C20.2808 33.529 20.7188 33.091 20.7188 32.5507V26.3701L29.1435 31.0793ZM40.4944 15.1512L22.1077 24.9051L30.1221 29.3848L48.0975 19.3422L40.4944 15.1512ZM12.2207 19.3785L20.0748 23.7687L38.4469 14.0225L30.192 9.47217L12.2207 19.3785ZM33.9852 33.4721L38.9729 30.8353V32.2293L33.9852 34.8661V33.4721ZM40.9294 30.5442C40.9294 29.2232 39.518 28.3268 38.3161 28.9694L32.9745 31.7933L32.9745 31.7932L32.968 31.7967C32.3971 32.1041 32.0286 32.7098 32.0286 33.3692V35.1571C32.0286 36.4784 33.4402 37.3744 34.6419 36.732L39.9807 33.9096C40.554 33.6106 40.9446 33.0149 40.9294 32.3192V30.5442Z" fill="#045DE9"/>
<path fill-rule="evenodd" clip-rule="evenodd" d="M31.1186 7.74886L31.119 7.74906L50.3954 18.3748C51.0151 18.7087 51.3902 19.3597 51.3902 20.0541V38.8813C51.3902 39.5789 51.0049 40.2153 50.4105 40.5522L50.4003 40.558L50.4003 40.5579L31.1191 51.1863L31.1186 51.1866C30.82 51.3513 30.4917 51.4313 30.1642 51.4265C30.1501 51.4271 30.136 51.4274 30.1218 51.4274C30.0557 51.4274 29.9912 51.4208 29.9288 51.4083C29.7 51.3763 29.4754 51.3024 29.2654 51.1866L29.2649 51.1863L9.98853 40.5606C9.36914 40.2268 8.99365 39.576 8.99365 38.8813V20.0541C8.99365 19.7182 9.08302 19.3965 9.24203 19.1156C9.26261 19.0372 9.29334 18.9601 9.33472 18.8861C9.4615 18.6593 9.66516 18.5025 9.89489 18.4303C9.92071 18.4139 9.94697 18.3982 9.97365 18.3831L9.98367 18.3774L9.98371 18.3775L29.265 7.74906L29.2652 7.74896L29.2654 7.74886C29.8458 7.42876 30.5382 7.42876 31.1186 7.74886ZM31.1001 48.9627L49.4337 38.8567V20.8371L31.1001 31.0799V48.9627ZM29.1435 31.0793V48.8853L10.9502 38.8566V20.9098L18.7622 25.2765V32.5507C18.7622 33.091 19.2002 33.529 19.7405 33.529C20.2808 33.529 20.7188 33.091 20.7188 32.5507V26.3701L29.1435 31.0793ZM40.4944 15.1512L22.1077 24.9051L30.1221 29.3848L48.0975 19.3422L40.4944 15.1512ZM12.2207 19.3785L20.0748 23.7687L38.4469 14.0225L30.192 9.47217L12.2207 19.3785ZM33.9852 33.4721L38.9729 30.8353V32.2293L33.9852 34.8661V33.4721ZM40.9294 30.5442C40.9294 29.2232 39.518 28.3268 38.3161 28.9694L32.9745 31.7933L32.9745 31.7932L32.968 31.7967C32.3971 32.1041 32.0286 32.7098 32.0286 33.3692V35.1571C32.0286 36.4784 33.4402 37.3744 34.6419 36.732L39.9807 33.9096C40.554 33.6106 40.9446 33.0149 40.9294 32.3192V30.5442Z" fill="url(#paint0_linear_1020_323)"/>
<defs>
<linearGradient id="paint0_linear_1020_323" x1="18.0367" y1="50.5606" x2="54.4631" y2="42.621" gradientUnits="userSpaceOnUse">
<stop stop-color="#045DE9"/>
<stop offset="1" stop-color="#09C6F9" stop-opacity="0.74"/>
</linearGradient>
</defs>
</svg>
