<svg width="61" height="60" viewBox="0 0 61 60" fill="none" xmlns="http://www.w3.org/2000/svg">
<path fill-rule="evenodd" clip-rule="evenodd" d="M10.8542 30.2579C10.8542 19.1733 19.84 10.1874 30.9246 10.1874C33.0655 10.1874 35.1259 10.5222 37.0576 11.1414C37.6786 11.3404 38.3432 10.9984 38.5423 10.3775C38.7413 9.75659 38.3993 9.0919 37.7783 8.89287C35.6165 8.19988 33.313 7.82617 30.9246 7.82617C18.5359 7.82617 8.49292 17.8692 8.49292 30.2579C8.49292 42.6465 18.5359 52.6896 30.9246 52.6896C43.3133 52.6896 53.3563 42.6465 53.3563 30.2579C53.3563 27.8694 52.9826 25.5659 52.2896 23.4041C52.0906 22.7832 51.4259 22.4412 50.805 22.6403C50.184 22.8393 49.842 23.504 50.041 24.1249C50.6603 26.0566 50.995 28.117 50.995 30.2579C50.995 41.3425 42.0092 50.3283 30.9246 50.3283C19.84 50.3283 10.8542 41.3425 10.8542 30.2579ZM30.9244 17.2712C23.752 17.2712 17.9376 23.0856 17.9376 30.2579C17.9376 33.1427 18.8782 35.8078 20.4695 37.9634C20.6206 37.4982 20.8103 37.0546 21.0215 36.6323C21.7769 35.2476 23.7471 34.5917 26.6978 33.6097C26.8043 33.5742 26.9123 33.5382 27.0215 33.5018L27.5432 33.3714V32.5888C26.3693 31.4149 25.7172 30.1105 25.7172 27.5018C25.7172 24.6323 27.8041 22.5453 30.6737 22.5453C33.5432 22.5453 35.7606 24.6323 35.7606 27.5018C35.7606 30.1105 34.978 31.4149 33.9346 32.4584C33.9346 32.5454 33.9201 32.6467 33.9056 32.7482C33.8766 32.9511 33.8477 33.154 33.9346 33.241L34.4563 33.5018C34.5656 33.5382 34.6735 33.5742 34.7802 33.6097C37.7309 34.5917 39.7011 35.2476 40.4563 36.6323C40.7632 37.1847 40.9834 37.737 41.1306 38.2893C42.8721 36.0794 43.9111 33.29 43.9111 30.2579C43.9111 23.0856 38.0967 17.2712 30.9244 17.2712ZM39.0278 40.407C39.0236 40.3667 39.0215 40.3259 39.0215 40.2844C39.0215 39.3714 38.7606 38.5888 38.3693 37.8062C38.1501 37.3675 36.363 36.7443 34.714 36.1694C34.4019 36.0606 34.0947 35.9535 33.8041 35.8497L32.8911 35.4584C32.6302 35.3279 31.8476 34.9366 31.5867 33.8931C31.4563 33.1105 31.4563 31.6757 32.1085 30.8931C32.7606 30.241 33.2824 29.4584 33.2824 27.3714C33.2824 25.0236 31.1954 24.7627 30.6737 24.7627C30.1519 24.7627 28.065 24.8931 28.065 27.3714C28.065 29.4584 28.5867 30.1105 29.2389 30.8931C30.0215 31.6757 30.0215 33.1105 29.8911 33.8931C29.6302 34.9366 28.978 35.3279 28.5867 35.4584L27.8041 35.7192C25.8476 36.3714 23.4998 37.154 23.2389 37.6757C22.8476 38.4584 22.5867 39.3714 22.5867 40.154C22.5867 40.1741 22.5862 40.1939 22.5849 40.2137C24.841 42.1056 27.7497 43.2448 30.9244 43.2448C33.9895 43.2448 36.8065 42.1829 39.0278 40.407ZM15.5764 30.2579C15.5764 21.7815 22.4479 14.9099 30.9244 14.9099C39.4008 14.9099 46.2724 21.7815 46.2724 30.2579C46.2724 38.7345 39.4008 45.6059 30.9244 45.6059C22.4479 45.6059 15.5764 38.7345 15.5764 30.2579Z" fill="#045DE9"/>
<path fill-rule="evenodd" clip-rule="evenodd" d="M10.8542 30.2579C10.8542 19.1733 19.84 10.1874 30.9246 10.1874C33.0655 10.1874 35.1259 10.5222 37.0576 11.1414C37.6786 11.3404 38.3432 10.9984 38.5423 10.3775C38.7413 9.75659 38.3993 9.0919 37.7783 8.89287C35.6165 8.19988 33.313 7.82617 30.9246 7.82617C18.5359 7.82617 8.49292 17.8692 8.49292 30.2579C8.49292 42.6465 18.5359 52.6896 30.9246 52.6896C43.3133 52.6896 53.3563 42.6465 53.3563 30.2579C53.3563 27.8694 52.9826 25.5659 52.2896 23.4041C52.0906 22.7832 51.4259 22.4412 50.805 22.6403C50.184 22.8393 49.842 23.504 50.041 24.1249C50.6603 26.0566 50.995 28.117 50.995 30.2579C50.995 41.3425 42.0092 50.3283 30.9246 50.3283C19.84 50.3283 10.8542 41.3425 10.8542 30.2579ZM30.9244 17.2712C23.752 17.2712 17.9376 23.0856 17.9376 30.2579C17.9376 33.1427 18.8782 35.8078 20.4695 37.9634C20.6206 37.4982 20.8103 37.0546 21.0215 36.6323C21.7769 35.2476 23.7471 34.5917 26.6978 33.6097C26.8043 33.5742 26.9123 33.5382 27.0215 33.5018L27.5432 33.3714V32.5888C26.3693 31.4149 25.7172 30.1105 25.7172 27.5018C25.7172 24.6323 27.8041 22.5453 30.6737 22.5453C33.5432 22.5453 35.7606 24.6323 35.7606 27.5018C35.7606 30.1105 34.978 31.4149 33.9346 32.4584C33.9346 32.5454 33.9201 32.6467 33.9056 32.7482C33.8766 32.9511 33.8477 33.154 33.9346 33.241L34.4563 33.5018C34.5656 33.5382 34.6735 33.5742 34.7802 33.6097C37.7309 34.5917 39.7011 35.2476 40.4563 36.6323C40.7632 37.1847 40.9834 37.737 41.1306 38.2893C42.8721 36.0794 43.9111 33.29 43.9111 30.2579C43.9111 23.0856 38.0967 17.2712 30.9244 17.2712ZM39.0278 40.407C39.0236 40.3667 39.0215 40.3259 39.0215 40.2844C39.0215 39.3714 38.7606 38.5888 38.3693 37.8062C38.1501 37.3675 36.363 36.7443 34.714 36.1694C34.4019 36.0606 34.0947 35.9535 33.8041 35.8497L32.8911 35.4584C32.6302 35.3279 31.8476 34.9366 31.5867 33.8931C31.4563 33.1105 31.4563 31.6757 32.1085 30.8931C32.7606 30.241 33.2824 29.4584 33.2824 27.3714C33.2824 25.0236 31.1954 24.7627 30.6737 24.7627C30.1519 24.7627 28.065 24.8931 28.065 27.3714C28.065 29.4584 28.5867 30.1105 29.2389 30.8931C30.0215 31.6757 30.0215 33.1105 29.8911 33.8931C29.6302 34.9366 28.978 35.3279 28.5867 35.4584L27.8041 35.7192C25.8476 36.3714 23.4998 37.154 23.2389 37.6757C22.8476 38.4584 22.5867 39.3714 22.5867 40.154C22.5867 40.1741 22.5862 40.1939 22.5849 40.2137C24.841 42.1056 27.7497 43.2448 30.9244 43.2448C33.9895 43.2448 36.8065 42.1829 39.0278 40.407ZM15.5764 30.2579C15.5764 21.7815 22.4479 14.9099 30.9244 14.9099C39.4008 14.9099 46.2724 21.7815 46.2724 30.2579C46.2724 38.7345 39.4008 45.6059 30.9244 45.6059C22.4479 45.6059 15.5764 38.7345 15.5764 30.2579Z" fill="url(#paint0_linear_1020_334)"/>
<defs>
<linearGradient id="paint0_linear_1020_334" x1="18.0621" y1="51.8041" x2="56.4806" y2="43.1298" gradientUnits="userSpaceOnUse">
<stop stop-color="#045DE9"/>
<stop offset="1" stop-color="#09C6F9" stop-opacity="0.74"/>
</linearGradient>
</defs>
</svg>
