<svg width="61" height="60" viewBox="0 0 61 60" fill="none" xmlns="http://www.w3.org/2000/svg">
<path fill-rule="evenodd" clip-rule="evenodd" d="M14.681 12.6877C14.681 12.1638 15.1057 11.7391 15.6296 11.7391H17.8825C18.6029 11.7391 19.1868 11.1551 19.1868 10.4347C19.1868 9.71435 18.6029 9.13037 17.8825 9.13037H15.6296C13.6649 9.13037 12.0723 10.723 12.0723 12.6877V14.9407C12.0723 15.661 12.6562 16.245 13.3766 16.245C14.097 16.245 14.681 15.661 14.681 14.9407V12.6877ZM31.6372 10.4347C31.6372 9.71435 31.0533 9.13037 30.3329 9.13037C29.6125 9.13037 29.0285 9.71435 29.0285 10.4347V12.6877C29.0285 13.4081 29.6125 13.992 30.3329 13.992C31.0533 13.992 31.6372 13.4081 31.6372 12.6877V10.4347ZM42.7838 9.13037C42.0634 9.13037 41.4794 9.71435 41.4794 10.4347C41.4794 11.1551 42.0634 11.7391 42.7838 11.7391H45.0367C45.5606 11.7391 45.9853 12.1638 45.9853 12.6877V14.9407C45.9853 15.661 46.5693 16.245 47.2897 16.245C48.01 16.245 48.594 15.661 48.594 14.9407V12.6877C48.594 10.723 47.0014 9.13037 45.0367 9.13037H42.7838ZM45.0365 26.0869C44.3161 26.0869 43.7322 26.6708 43.7322 27.3912C43.7322 28.1116 44.3161 28.6956 45.0365 28.6956H47.2894C48.0098 28.6956 48.5937 28.1116 48.5937 27.3912C48.5937 26.6708 48.0098 26.0869 47.2894 26.0869H45.0365ZM13.3766 26.0869C12.6562 26.0869 12.0723 26.6708 12.0723 27.3912C12.0723 28.1116 12.6562 28.6956 13.3766 28.6956H15.6296C16.3499 28.6956 16.9339 28.1116 16.9339 27.3912C16.9339 26.6708 16.3499 26.0869 15.6296 26.0869H13.3766ZM48.594 39.8418C48.594 39.1215 48.01 38.5374 47.2897 38.5374C46.5693 38.5374 45.9853 39.1215 45.9853 39.8418V42.0948C45.9853 42.6187 45.5606 43.0434 45.0367 43.0434H42.7838C42.0634 43.0434 41.4794 43.6274 41.4794 44.3478C41.4794 45.0682 42.0634 45.6521 42.7838 45.6521H45.0367C47.0014 45.6521 48.594 44.0594 48.594 42.0948V39.8418ZM14.681 39.8418C14.681 39.1215 14.097 38.5374 13.3766 38.5374C12.6562 38.5374 12.0723 39.1215 12.0723 39.8418V42.0948C12.0723 44.0594 13.6649 45.6521 15.6296 45.6521H17.8825C18.6029 45.6521 19.1868 45.0682 19.1868 44.3478C19.1868 43.6274 18.6029 43.0434 17.8825 43.0434H15.6296C15.1057 43.0434 14.681 42.6187 14.681 42.0948V39.8418ZM31.6372 42.0948C31.6372 41.3745 31.0533 40.7904 30.3329 40.7904C29.6125 40.7904 29.0285 41.3745 29.0285 42.0948V44.3478C29.0285 45.0682 29.6125 45.6521 30.3329 45.6521C31.0533 45.6521 31.6372 45.0682 31.6372 44.3478V42.0948ZM31.3216 20.4633V18.2608H29.7319V20.4322C29.0655 20.4957 28.4643 20.655 27.9282 20.9103C27.2217 21.2431 26.6681 21.7187 26.2672 22.3369C25.8664 22.9551 25.666 23.6854 25.666 24.5278C25.666 25.4109 25.8528 26.1412 26.2265 26.7187C26.6001 27.2893 27.1198 27.7683 27.7856 28.1555C28.4581 28.5359 29.236 28.896 30.1191 29.2357C30.6422 29.4327 31.0566 29.6365 31.3623 29.8471C31.6748 30.0577 31.899 30.2988 32.0349 30.5706C32.1776 30.8423 32.2489 31.1718 32.2489 31.559C32.2489 31.9055 32.1742 32.218 32.0247 32.4965C31.882 32.7683 31.6681 32.9823 31.3827 33.1385C31.1042 33.2948 30.7475 33.3729 30.3128 33.3729C30.0342 33.3729 29.7591 33.3321 29.4873 33.2506C29.2156 33.1691 28.971 33.0332 28.7537 32.843C28.5431 32.646 28.3732 32.3844 28.2441 32.0584C28.1151 31.7255 28.0505 31.3111 28.0505 30.8152H25.1157C25.1157 31.7255 25.2652 32.4931 25.5641 33.1181C25.863 33.7363 26.2638 34.2323 26.7666 34.6059C27.2693 34.9796 27.8297 35.2513 28.4479 35.4211C28.8102 35.5167 29.1737 35.5842 29.5383 35.6238V37.6426H31.128V35.6249C31.7633 35.5589 32.3408 35.4129 32.8603 35.1868C33.594 34.8607 34.1647 34.3919 34.5723 33.7805C34.9799 33.1623 35.1837 32.415 35.1837 31.5387C35.1837 30.6555 34.9969 29.9286 34.6232 29.358C34.2496 28.7873 33.7299 28.305 33.0641 27.9109C32.3984 27.5169 31.6239 27.1501 30.7407 26.8104C30.1973 26.5862 29.7693 26.3688 29.4568 26.1582C29.1443 25.9408 28.9235 25.7031 28.7944 25.4449C28.6721 25.1868 28.611 24.8844 28.611 24.538C28.611 24.1847 28.6687 23.8722 28.7842 23.6005C28.9065 23.3219 29.1001 23.1012 29.3651 22.9381C29.63 22.7751 29.9697 22.6936 30.3841 22.6936C30.6626 22.6936 30.9174 22.7479 31.1484 22.8566C31.3793 22.9585 31.5763 23.1147 31.7394 23.3253C31.9092 23.5359 32.0383 23.7975 32.1266 24.11C32.2149 24.4225 32.2591 24.7825 32.2591 25.1902H35.1837C35.1837 24.4293 35.0716 23.7533 34.8474 23.1623C34.6232 22.5713 34.3005 22.0719 33.8793 21.6643C33.4581 21.2499 32.9554 20.9374 32.3712 20.7268C32.0428 20.6046 31.6929 20.5168 31.3216 20.4633Z" fill="#045DE9"/>
<path fill-rule="evenodd" clip-rule="evenodd" d="M14.681 12.6877C14.681 12.1638 15.1057 11.7391 15.6296 11.7391H17.8825C18.6029 11.7391 19.1868 11.1551 19.1868 10.4347C19.1868 9.71435 18.6029 9.13037 17.8825 9.13037H15.6296C13.6649 9.13037 12.0723 10.723 12.0723 12.6877V14.9407C12.0723 15.661 12.6562 16.245 13.3766 16.245C14.097 16.245 14.681 15.661 14.681 14.9407V12.6877ZM31.6372 10.4347C31.6372 9.71435 31.0533 9.13037 30.3329 9.13037C29.6125 9.13037 29.0285 9.71435 29.0285 10.4347V12.6877C29.0285 13.4081 29.6125 13.992 30.3329 13.992C31.0533 13.992 31.6372 13.4081 31.6372 12.6877V10.4347ZM42.7838 9.13037C42.0634 9.13037 41.4794 9.71435 41.4794 10.4347C41.4794 11.1551 42.0634 11.7391 42.7838 11.7391H45.0367C45.5606 11.7391 45.9853 12.1638 45.9853 12.6877V14.9407C45.9853 15.661 46.5693 16.245 47.2897 16.245C48.01 16.245 48.594 15.661 48.594 14.9407V12.6877C48.594 10.723 47.0014 9.13037 45.0367 9.13037H42.7838ZM45.0365 26.0869C44.3161 26.0869 43.7322 26.6708 43.7322 27.3912C43.7322 28.1116 44.3161 28.6956 45.0365 28.6956H47.2894C48.0098 28.6956 48.5937 28.1116 48.5937 27.3912C48.5937 26.6708 48.0098 26.0869 47.2894 26.0869H45.0365ZM13.3766 26.0869C12.6562 26.0869 12.0723 26.6708 12.0723 27.3912C12.0723 28.1116 12.6562 28.6956 13.3766 28.6956H15.6296C16.3499 28.6956 16.9339 28.1116 16.9339 27.3912C16.9339 26.6708 16.3499 26.0869 15.6296 26.0869H13.3766ZM48.594 39.8418C48.594 39.1215 48.01 38.5374 47.2897 38.5374C46.5693 38.5374 45.9853 39.1215 45.9853 39.8418V42.0948C45.9853 42.6187 45.5606 43.0434 45.0367 43.0434H42.7838C42.0634 43.0434 41.4794 43.6274 41.4794 44.3478C41.4794 45.0682 42.0634 45.6521 42.7838 45.6521H45.0367C47.0014 45.6521 48.594 44.0594 48.594 42.0948V39.8418ZM14.681 39.8418C14.681 39.1215 14.097 38.5374 13.3766 38.5374C12.6562 38.5374 12.0723 39.1215 12.0723 39.8418V42.0948C12.0723 44.0594 13.6649 45.6521 15.6296 45.6521H17.8825C18.6029 45.6521 19.1868 45.0682 19.1868 44.3478C19.1868 43.6274 18.6029 43.0434 17.8825 43.0434H15.6296C15.1057 43.0434 14.681 42.6187 14.681 42.0948V39.8418ZM31.6372 42.0948C31.6372 41.3745 31.0533 40.7904 30.3329 40.7904C29.6125 40.7904 29.0285 41.3745 29.0285 42.0948V44.3478C29.0285 45.0682 29.6125 45.6521 30.3329 45.6521C31.0533 45.6521 31.6372 45.0682 31.6372 44.3478V42.0948ZM31.3216 20.4633V18.2608H29.7319V20.4322C29.0655 20.4957 28.4643 20.655 27.9282 20.9103C27.2217 21.2431 26.6681 21.7187 26.2672 22.3369C25.8664 22.9551 25.666 23.6854 25.666 24.5278C25.666 25.4109 25.8528 26.1412 26.2265 26.7187C26.6001 27.2893 27.1198 27.7683 27.7856 28.1555C28.4581 28.5359 29.236 28.896 30.1191 29.2357C30.6422 29.4327 31.0566 29.6365 31.3623 29.8471C31.6748 30.0577 31.899 30.2988 32.0349 30.5706C32.1776 30.8423 32.2489 31.1718 32.2489 31.559C32.2489 31.9055 32.1742 32.218 32.0247 32.4965C31.882 32.7683 31.6681 32.9823 31.3827 33.1385C31.1042 33.2948 30.7475 33.3729 30.3128 33.3729C30.0342 33.3729 29.7591 33.3321 29.4873 33.2506C29.2156 33.1691 28.971 33.0332 28.7537 32.843C28.5431 32.646 28.3732 32.3844 28.2441 32.0584C28.1151 31.7255 28.0505 31.3111 28.0505 30.8152H25.1157C25.1157 31.7255 25.2652 32.4931 25.5641 33.1181C25.863 33.7363 26.2638 34.2323 26.7666 34.6059C27.2693 34.9796 27.8297 35.2513 28.4479 35.4211C28.8102 35.5167 29.1737 35.5842 29.5383 35.6238V37.6426H31.128V35.6249C31.7633 35.5589 32.3408 35.4129 32.8603 35.1868C33.594 34.8607 34.1647 34.3919 34.5723 33.7805C34.9799 33.1623 35.1837 32.415 35.1837 31.5387C35.1837 30.6555 34.9969 29.9286 34.6232 29.358C34.2496 28.7873 33.7299 28.305 33.0641 27.9109C32.3984 27.5169 31.6239 27.1501 30.7407 26.8104C30.1973 26.5862 29.7693 26.3688 29.4568 26.1582C29.1443 25.9408 28.9235 25.7031 28.7944 25.4449C28.6721 25.1868 28.611 24.8844 28.611 24.538C28.611 24.1847 28.6687 23.8722 28.7842 23.6005C28.9065 23.3219 29.1001 23.1012 29.3651 22.9381C29.63 22.7751 29.9697 22.6936 30.3841 22.6936C30.6626 22.6936 30.9174 22.7479 31.1484 22.8566C31.3793 22.9585 31.5763 23.1147 31.7394 23.3253C31.9092 23.5359 32.0383 23.7975 32.1266 24.11C32.2149 24.4225 32.2591 24.7825 32.2591 25.1902H35.1837C35.1837 24.4293 35.0716 23.7533 34.8474 23.1623C34.6232 22.5713 34.3005 22.0719 33.8793 21.6643C33.4581 21.2499 32.9554 20.9374 32.3712 20.7268C32.0428 20.6046 31.6929 20.5168 31.3216 20.4633Z" fill="url(#paint0_linear_1020_341)"/>
<defs>
<linearGradient id="paint0_linear_1020_341" x1="19.8622" y1="44.9313" x2="51.1374" y2="37.8698" gradientUnits="userSpaceOnUse">
<stop stop-color="#045DE9"/>
<stop offset="1" stop-color="#09C6F9" stop-opacity="0.74"/>
</linearGradient>
</defs>
</svg>
