<svg width="60" height="60" viewBox="0 0 60 60" fill="none" xmlns="http://www.w3.org/2000/svg">
<g clip-path="url(#clip0_1020_376)">
<path fill-rule="evenodd" clip-rule="evenodd" d="M14.7657 10.6096C15.1304 9.52604 16.1559 8.80427 17.2992 8.82668L17.3188 8.82687H54.259C55.8012 8.87951 57.0133 10.1674 56.9707 11.7117C56.9705 11.7209 56.9703 11.7301 56.9703 11.7393V33.9283H33.3334C32.7812 33.9283 32.3334 34.376 32.3334 34.9283C32.3334 35.4806 32.7812 35.9283 33.3334 35.9283H56.9703V40.8704L56.9705 40.8881L56.9707 40.8979C57.0133 42.4422 55.8012 43.7302 54.259 43.7828H21.0144C20.4621 43.7828 20.0144 44.2305 20.0144 44.7828C20.0144 45.3351 20.4621 45.7828 21.0144 45.7828H34.7957V48.7105H24.71C24.1577 48.7105 23.71 49.1582 23.71 49.7105C23.71 50.2628 24.1577 50.7105 24.71 50.7105H46.8836C47.4359 50.7105 47.8836 50.2628 47.8836 49.7105C47.8836 49.1582 47.4359 48.7105 46.8836 48.7105H36.7957V45.7828H54.2747L54.2879 45.7827L54.3041 45.7823C56.9508 45.7046 59.0354 43.5024 58.9703 40.8574V34.957C58.9706 34.9475 58.9708 34.9379 58.9708 34.9283L58.9707 34.915L58.9703 34.8996V11.7522C59.0354 9.10724 56.9508 6.90507 54.3041 6.82731C54.2943 6.82702 54.2845 6.82687 54.2747 6.82687H17.328C15.316 6.79192 13.5123 8.0637 12.8702 9.9716C12.694 10.495 12.9755 11.0622 13.4989 11.2384C14.0223 11.4145 14.5895 11.133 14.7657 10.6096ZM11.1585 16.2185C10.3501 16.2185 9.69478 16.8739 9.69478 17.6823V22.6097C9.69478 23.162 9.24706 23.6097 8.69478 23.6097C8.14249 23.6097 7.69478 23.162 7.69478 22.6097V17.6823C7.69478 15.7693 9.24554 14.2185 11.1585 14.2185H25.9409C27.8538 14.2185 29.4046 15.7693 29.4046 17.6823V37.3921C29.4046 39.3052 27.8538 40.8558 25.9409 40.8558H21.0134C20.4611 40.8558 20.0134 40.4081 20.0134 39.8558C20.0134 39.3035 20.4611 38.8558 21.0134 38.8558H25.9409C26.7493 38.8558 27.4046 38.2005 27.4046 37.3921V17.6823C27.4046 16.8739 26.7493 16.2185 25.9409 16.2185H11.1585ZM2.30432 28.8408C2.30432 28.6729 2.44051 28.5366 2.60867 28.5366H14.7824C14.9504 28.5366 15.0868 28.6729 15.0868 28.8409V48.4058C15.0868 48.5738 14.9504 48.7101 14.7824 48.7101H2.60867C2.44057 48.7101 2.30432 48.5739 2.30432 48.4058V28.8408ZM2.60867 26.5366C1.3361 26.5366 0.304321 27.5682 0.304321 28.8408V48.4058C0.304321 49.6785 1.33601 50.7101 2.60867 50.7101H14.7824C16.0549 50.7101 17.0868 49.6785 17.0868 48.4058V28.8409C17.0868 27.5682 16.0549 26.5366 14.7824 26.5366H2.60867Z" fill="#045DE9"/>
<path fill-rule="evenodd" clip-rule="evenodd" d="M14.7657 10.6096C15.1304 9.52604 16.1559 8.80427 17.2992 8.82668L17.3188 8.82687H54.259C55.8012 8.87951 57.0133 10.1674 56.9707 11.7117C56.9705 11.7209 56.9703 11.7301 56.9703 11.7393V33.9283H33.3334C32.7812 33.9283 32.3334 34.376 32.3334 34.9283C32.3334 35.4806 32.7812 35.9283 33.3334 35.9283H56.9703V40.8704L56.9705 40.8881L56.9707 40.8979C57.0133 42.4422 55.8012 43.7302 54.259 43.7828H21.0144C20.4621 43.7828 20.0144 44.2305 20.0144 44.7828C20.0144 45.3351 20.4621 45.7828 21.0144 45.7828H34.7957V48.7105H24.71C24.1577 48.7105 23.71 49.1582 23.71 49.7105C23.71 50.2628 24.1577 50.7105 24.71 50.7105H46.8836C47.4359 50.7105 47.8836 50.2628 47.8836 49.7105C47.8836 49.1582 47.4359 48.7105 46.8836 48.7105H36.7957V45.7828H54.2747L54.2879 45.7827L54.3041 45.7823C56.9508 45.7046 59.0354 43.5024 58.9703 40.8574V34.957C58.9706 34.9475 58.9708 34.9379 58.9708 34.9283L58.9707 34.915L58.9703 34.8996V11.7522C59.0354 9.10724 56.9508 6.90507 54.3041 6.82731C54.2943 6.82702 54.2845 6.82687 54.2747 6.82687H17.328C15.316 6.79192 13.5123 8.0637 12.8702 9.9716C12.694 10.495 12.9755 11.0622 13.4989 11.2384C14.0223 11.4145 14.5895 11.133 14.7657 10.6096ZM11.1585 16.2185C10.3501 16.2185 9.69478 16.8739 9.69478 17.6823V22.6097C9.69478 23.162 9.24706 23.6097 8.69478 23.6097C8.14249 23.6097 7.69478 23.162 7.69478 22.6097V17.6823C7.69478 15.7693 9.24554 14.2185 11.1585 14.2185H25.9409C27.8538 14.2185 29.4046 15.7693 29.4046 17.6823V37.3921C29.4046 39.3052 27.8538 40.8558 25.9409 40.8558H21.0134C20.4611 40.8558 20.0134 40.4081 20.0134 39.8558C20.0134 39.3035 20.4611 38.8558 21.0134 38.8558H25.9409C26.7493 38.8558 27.4046 38.2005 27.4046 37.3921V17.6823C27.4046 16.8739 26.7493 16.2185 25.9409 16.2185H11.1585ZM2.30432 28.8408C2.30432 28.6729 2.44051 28.5366 2.60867 28.5366H14.7824C14.9504 28.5366 15.0868 28.6729 15.0868 28.8409V48.4058C15.0868 48.5738 14.9504 48.7101 14.7824 48.7101H2.60867C2.44057 48.7101 2.30432 48.5739 2.30432 48.4058V28.8408ZM2.60867 26.5366C1.3361 26.5366 0.304321 27.5682 0.304321 28.8408V48.4058C0.304321 49.6785 1.33601 50.7101 2.60867 50.7101H14.7824C16.0549 50.7101 17.0868 49.6785 17.0868 48.4058V28.8409C17.0868 27.5682 16.0549 26.5366 14.7824 26.5366H2.60867Z" fill="url(#paint0_linear_1020_376)"/>
</g>
<defs>
<linearGradient id="paint0_linear_1020_376" x1="12.8179" y1="49.8444" x2="61.2096" y2="35.2375" gradientUnits="userSpaceOnUse">
<stop stop-color="#045DE9"/>
<stop offset="1" stop-color="#09C6F9" stop-opacity="0.74"/>
</linearGradient>
<clipPath id="clip0_1020_376">
<rect width="60" height="45.6522" fill="white" transform="translate(0 6.52197)"/>
</clipPath>
</defs>
</svg>
