<svg width="80" height="80" viewBox="0 0 80 80" fill="none" xmlns="http://www.w3.org/2000/svg">
<path fill-rule="evenodd" clip-rule="evenodd" d="M40.2602 14.8178C39.1756 14.8178 38.2963 15.6971 38.2963 16.7817C38.2963 17.8663 39.1756 18.7456 40.2602 18.7456C41.3449 18.7456 42.2241 17.8663 42.2241 16.7817C42.2241 15.6971 41.3449 14.8178 40.2602 14.8178ZM36.4863 16.7817C36.4863 14.6974 38.176 13.0078 40.2602 13.0078C42.3445 13.0078 44.0341 14.6974 44.0341 16.7817C44.0341 18.6462 42.682 20.1949 40.9049 20.5007V25.6517C40.9049 26.1515 40.4997 26.5567 39.9999 26.5567C39.5001 26.5567 39.0949 26.1515 39.0949 25.6517V20.4343C39.0949 20.4136 39.0956 20.3932 39.0969 20.3729C37.5819 19.8825 36.4863 18.46 36.4863 16.7817ZM40.9049 53.043C40.9049 52.5432 40.4997 52.138 39.9999 52.138C39.5001 52.138 39.0949 52.5432 39.0949 53.043V58.2604C39.0949 58.2812 39.0956 58.3018 39.097 58.3223C37.5819 58.8127 36.4863 60.2351 36.4863 61.9135C36.4863 63.9977 38.176 65.6874 40.2602 65.6874C42.3445 65.6874 44.0341 63.9977 44.0341 61.9135C44.0341 60.049 42.682 58.5003 40.9049 58.1944V53.043ZM40.2602 63.8774C39.1756 63.8774 38.2963 62.9981 38.2963 61.9135C38.2963 60.8289 39.1756 59.9496 40.2602 59.9496C41.3449 59.9496 42.2241 60.8289 42.2241 61.9135C42.2241 62.9981 41.3449 63.8774 40.2602 63.8774ZM51.8115 31.1464L55.8293 28.8266C55.5097 27.277 56.1943 25.6309 57.6396 24.7964C59.4446 23.7543 61.7527 24.3727 62.7948 26.1777C63.837 27.9828 63.2185 30.2908 61.4135 31.333C59.7917 32.2693 57.7639 31.8651 56.613 30.4642L52.7165 32.7139C52.2836 32.9638 51.7301 32.8155 51.4802 32.3826C51.2303 31.9498 51.3786 31.3963 51.8115 31.1464ZM61.2273 27.0827C60.685 26.1434 59.4839 25.8216 58.5446 26.3639C57.6053 26.9062 57.2835 28.1073 57.8258 29.0466C58.3681 29.9859 59.5692 30.3078 60.5085 29.7654C61.4478 29.2231 61.7696 28.022 61.2273 27.0827ZM27.8716 47.0581C28.3044 46.8082 28.4527 46.2548 28.2028 45.8219C27.9529 45.389 27.3994 45.2407 26.9666 45.4906L22.9495 47.8099C21.7673 46.7581 19.9992 46.5278 18.5538 47.3623C16.7488 48.4044 16.1303 50.7125 17.1725 52.5175C18.2146 54.3225 20.5227 54.941 22.3277 53.8988C23.9494 52.9626 24.6133 51.0045 23.9757 49.3074L27.8716 47.0581ZM18.74 51.6125C18.1977 50.6732 18.5195 49.4721 19.4588 48.9298C20.3981 48.3875 21.5992 48.7093 22.1415 49.6486C22.6838 50.5879 22.362 51.789 21.4227 52.3313C20.4834 52.8737 19.2823 52.5518 18.74 51.6125ZM53.0005 45.4906C52.5677 45.2407 52.0142 45.389 51.7643 45.8219C51.5144 46.2547 51.6627 46.8082 52.0955 47.0581L55.9913 49.3074C55.3537 51.0045 56.0176 52.9626 57.6393 53.8988C59.4443 54.941 61.7524 54.3225 62.7945 52.5175C63.8366 50.7125 63.2182 48.4044 61.4132 47.3623C59.9677 46.5278 58.1997 46.7581 57.0175 47.8099L53.0005 45.4906ZM61.227 51.6125C61.7693 50.6732 61.4475 49.4721 60.5082 48.9298C59.5688 48.3875 58.3677 48.7093 57.8254 49.6486C57.2831 50.5879 57.605 51.789 58.5443 52.3313C59.4836 52.8737 60.6847 52.5518 61.227 51.6125ZM22.3274 24.7964C23.7729 25.631 24.4574 27.2774 24.1375 28.8273L28.1543 31.1464C28.5872 31.3963 28.7355 31.9498 28.4856 32.3826C28.2357 32.8155 27.6822 32.9638 27.2493 32.7139L23.3536 30.4647C22.2026 31.8652 20.175 32.2692 18.5535 31.333C16.7484 30.2908 16.13 27.9827 17.1721 26.1777C18.2143 24.3727 20.5223 23.7543 22.3274 24.7964ZM18.7396 27.0827C19.2819 26.1434 20.483 25.8216 21.4224 26.3639C22.3617 26.9062 22.6835 28.1073 22.1412 29.0466C21.5989 29.9859 20.3978 30.3078 19.4585 29.7654C18.5192 29.2231 18.1973 28.022 18.7396 27.0827ZM30.0968 35.9903C30.0626 36.0487 30.0479 36.074 29.9564 36.2448C29.8456 36.4514 29.4923 36.4649 29.5785 36.0909C29.6356 35.8441 29.633 35.8669 29.6301 35.8923C29.6286 35.9054 29.627 35.9191 29.6334 35.8973C30.9261 31.4832 34.9971 28.2604 39.8195 28.2604C45.6821 28.2604 50.4347 33.0232 50.4347 38.8987C50.4347 44.7741 45.6821 49.5371 39.8195 49.5371C39.5996 49.5371 39.3815 49.5303 39.1648 49.5171C38.9216 49.5022 38.8565 49.2346 39.0553 49.1136C39.7807 48.6702 40.427 48.1016 40.9666 47.4779C41.5807 46.7685 42.1229 45.8492 42.4968 44.9313C42.6627 44.5241 42.0267 43.932 41.5822 44.6374C40.7519 45.697 40.0911 46.2043 39.7504 46.4212C39.4597 46.5652 39.1571 46.6909 38.8771 46.7819C35.8424 47.7687 33.7564 45.6948 32.7733 44.0768C31.0441 41.2314 31.3462 35.8112 33.7668 34.0398C34.4814 33.5172 35.983 32.8434 37.3156 33.3991C38.319 33.8176 38.406 34.4201 38.5189 35.2024C38.5635 35.5116 38.6122 35.8489 38.7231 36.214L38.7107 36.2149C38.7107 36.2149 38.852 37.0741 39.5693 37.5021C39.5718 37.5057 39.5743 37.5094 39.5768 37.5131C39.5802 37.518 39.5837 37.5229 39.587 37.528C39.6056 37.5326 39.6252 37.538 39.6448 37.5436C39.6528 37.5478 39.6607 37.552 39.6688 37.5562C39.836 37.6442 40.032 37.7473 40.2602 37.7718C40.5348 37.8381 40.8384 37.8261 41.1482 37.7415C42.2786 37.4326 42.5852 35.8995 41.9291 34.8229C41.0262 33.3418 39.299 32.2389 36.979 32.1259V32.1178C35.6433 32.076 34.8727 32.3 34.613 32.3934C32.9599 32.7886 31.8602 33.7774 31.3599 34.3206C30.9122 34.7569 30.4913 35.3098 30.1219 35.9471C30.112 35.9641 30.104 35.9779 30.0968 35.9903Z" fill="#045DE9"/>
<path fill-rule="evenodd" clip-rule="evenodd" d="M40.2602 14.8178C39.1756 14.8178 38.2963 15.6971 38.2963 16.7817C38.2963 17.8663 39.1756 18.7456 40.2602 18.7456C41.3449 18.7456 42.2241 17.8663 42.2241 16.7817C42.2241 15.6971 41.3449 14.8178 40.2602 14.8178ZM36.4863 16.7817C36.4863 14.6974 38.176 13.0078 40.2602 13.0078C42.3445 13.0078 44.0341 14.6974 44.0341 16.7817C44.0341 18.6462 42.682 20.1949 40.9049 20.5007V25.6517C40.9049 26.1515 40.4997 26.5567 39.9999 26.5567C39.5001 26.5567 39.0949 26.1515 39.0949 25.6517V20.4343C39.0949 20.4136 39.0956 20.3932 39.0969 20.3729C37.5819 19.8825 36.4863 18.46 36.4863 16.7817ZM40.9049 53.043C40.9049 52.5432 40.4997 52.138 39.9999 52.138C39.5001 52.138 39.0949 52.5432 39.0949 53.043V58.2604C39.0949 58.2812 39.0956 58.3018 39.097 58.3223C37.5819 58.8127 36.4863 60.2351 36.4863 61.9135C36.4863 63.9977 38.176 65.6874 40.2602 65.6874C42.3445 65.6874 44.0341 63.9977 44.0341 61.9135C44.0341 60.049 42.682 58.5003 40.9049 58.1944V53.043ZM40.2602 63.8774C39.1756 63.8774 38.2963 62.9981 38.2963 61.9135C38.2963 60.8289 39.1756 59.9496 40.2602 59.9496C41.3449 59.9496 42.2241 60.8289 42.2241 61.9135C42.2241 62.9981 41.3449 63.8774 40.2602 63.8774ZM51.8115 31.1464L55.8293 28.8266C55.5097 27.277 56.1943 25.6309 57.6396 24.7964C59.4446 23.7543 61.7527 24.3727 62.7948 26.1777C63.837 27.9828 63.2185 30.2908 61.4135 31.333C59.7917 32.2693 57.7639 31.8651 56.613 30.4642L52.7165 32.7139C52.2836 32.9638 51.7301 32.8155 51.4802 32.3826C51.2303 31.9498 51.3786 31.3963 51.8115 31.1464ZM61.2273 27.0827C60.685 26.1434 59.4839 25.8216 58.5446 26.3639C57.6053 26.9062 57.2835 28.1073 57.8258 29.0466C58.3681 29.9859 59.5692 30.3078 60.5085 29.7654C61.4478 29.2231 61.7696 28.022 61.2273 27.0827ZM27.8716 47.0581C28.3044 46.8082 28.4527 46.2548 28.2028 45.8219C27.9529 45.389 27.3994 45.2407 26.9666 45.4906L22.9495 47.8099C21.7673 46.7581 19.9992 46.5278 18.5538 47.3623C16.7488 48.4044 16.1303 50.7125 17.1725 52.5175C18.2146 54.3225 20.5227 54.941 22.3277 53.8988C23.9494 52.9626 24.6133 51.0045 23.9757 49.3074L27.8716 47.0581ZM18.74 51.6125C18.1977 50.6732 18.5195 49.4721 19.4588 48.9298C20.3981 48.3875 21.5992 48.7093 22.1415 49.6486C22.6838 50.5879 22.362 51.789 21.4227 52.3313C20.4834 52.8737 19.2823 52.5518 18.74 51.6125ZM53.0005 45.4906C52.5677 45.2407 52.0142 45.389 51.7643 45.8219C51.5144 46.2547 51.6627 46.8082 52.0955 47.0581L55.9913 49.3074C55.3537 51.0045 56.0176 52.9626 57.6393 53.8988C59.4443 54.941 61.7524 54.3225 62.7945 52.5175C63.8366 50.7125 63.2182 48.4044 61.4132 47.3623C59.9677 46.5278 58.1997 46.7581 57.0175 47.8099L53.0005 45.4906ZM61.227 51.6125C61.7693 50.6732 61.4475 49.4721 60.5082 48.9298C59.5688 48.3875 58.3677 48.7093 57.8254 49.6486C57.2831 50.5879 57.605 51.789 58.5443 52.3313C59.4836 52.8737 60.6847 52.5518 61.227 51.6125ZM22.3274 24.7964C23.7729 25.631 24.4574 27.2774 24.1375 28.8273L28.1543 31.1464C28.5872 31.3963 28.7355 31.9498 28.4856 32.3826C28.2357 32.8155 27.6822 32.9638 27.2493 32.7139L23.3536 30.4647C22.2026 31.8652 20.175 32.2692 18.5535 31.333C16.7484 30.2908 16.13 27.9827 17.1721 26.1777C18.2143 24.3727 20.5223 23.7543 22.3274 24.7964ZM18.7396 27.0827C19.2819 26.1434 20.483 25.8216 21.4224 26.3639C22.3617 26.9062 22.6835 28.1073 22.1412 29.0466C21.5989 29.9859 20.3978 30.3078 19.4585 29.7654C18.5192 29.2231 18.1973 28.022 18.7396 27.0827ZM30.0968 35.9903C30.0626 36.0487 30.0479 36.074 29.9564 36.2448C29.8456 36.4514 29.4923 36.4649 29.5785 36.0909C29.6356 35.8441 29.633 35.8669 29.6301 35.8923C29.6286 35.9054 29.627 35.9191 29.6334 35.8973C30.9261 31.4832 34.9971 28.2604 39.8195 28.2604C45.6821 28.2604 50.4347 33.0232 50.4347 38.8987C50.4347 44.7741 45.6821 49.5371 39.8195 49.5371C39.5996 49.5371 39.3815 49.5303 39.1648 49.5171C38.9216 49.5022 38.8565 49.2346 39.0553 49.1136C39.7807 48.6702 40.427 48.1016 40.9666 47.4779C41.5807 46.7685 42.1229 45.8492 42.4968 44.9313C42.6627 44.5241 42.0267 43.932 41.5822 44.6374C40.7519 45.697 40.0911 46.2043 39.7504 46.4212C39.4597 46.5652 39.1571 46.6909 38.8771 46.7819C35.8424 47.7687 33.7564 45.6948 32.7733 44.0768C31.0441 41.2314 31.3462 35.8112 33.7668 34.0398C34.4814 33.5172 35.983 32.8434 37.3156 33.3991C38.319 33.8176 38.406 34.4201 38.5189 35.2024C38.5635 35.5116 38.6122 35.8489 38.7231 36.214L38.7107 36.2149C38.7107 36.2149 38.852 37.0741 39.5693 37.5021C39.5718 37.5057 39.5743 37.5094 39.5768 37.5131C39.5802 37.518 39.5837 37.5229 39.587 37.528C39.6056 37.5326 39.6252 37.538 39.6448 37.5436C39.6528 37.5478 39.6607 37.552 39.6688 37.5562C39.836 37.6442 40.032 37.7473 40.2602 37.7718C40.5348 37.8381 40.8384 37.8261 41.1482 37.7415C42.2786 37.4326 42.5852 35.8995 41.9291 34.8229C41.0262 33.3418 39.299 32.2389 36.979 32.1259V32.1178C35.6433 32.076 34.8727 32.3 34.613 32.3934C32.9599 32.7886 31.8602 33.7774 31.3599 34.3206C30.9122 34.7569 30.4913 35.3098 30.1219 35.9471C30.112 35.9641 30.104 35.9779 30.0968 35.9903Z" fill="url(#paint0_linear_1020_741)"/>
<defs>
<linearGradient id="paint0_linear_1020_741" x1="26.613" y1="64.6476" x2="66.9722" y2="56.5807" gradientUnits="userSpaceOnUse">
<stop stop-color="#045DE9"/>
<stop offset="1" stop-color="#09C6F9" stop-opacity="0.74"/>
</linearGradient>
</defs>
</svg>
