<svg width="80" height="80" viewBox="0 0 80 80" fill="none" xmlns="http://www.w3.org/2000/svg">
<g clip-path="url(#clip0_1020_762)">
<path fill-rule="evenodd" clip-rule="evenodd" d="M24.7657 20.6096C25.1304 19.526 26.1559 18.8043 27.2992 18.8267L27.3188 18.8269H64.259C65.8012 18.8795 67.0133 20.1674 66.9707 21.7117C66.9705 21.7209 66.9703 21.7301 66.9703 21.7393V43.9283H43.3334C42.7812 43.9283 42.3334 44.376 42.3334 44.9283C42.3334 45.4806 42.7812 45.9283 43.3334 45.9283H66.9703V50.8704L66.9705 50.8881L66.9707 50.8979C67.0133 52.4422 65.8012 53.7302 64.259 53.7828H31.0144C30.4621 53.7828 30.0144 54.2305 30.0144 54.7828C30.0144 55.3351 30.4621 55.7828 31.0144 55.7828H44.7957V58.7105H34.71C34.1577 58.7105 33.71 59.1582 33.71 59.7105C33.71 60.2628 34.1577 60.7105 34.71 60.7105H56.8836C57.4359 60.7105 57.8836 60.2628 57.8836 59.7105C57.8836 59.1582 57.4359 58.7105 56.8836 58.7105H46.7957V55.7828H64.2747L64.2879 55.7827L64.3041 55.7823C66.9508 55.7046 69.0354 53.5024 68.9703 50.8574V44.957C68.9706 44.9475 68.9708 44.9379 68.9708 44.9283L68.9707 44.915L68.9703 44.8996V21.7522C69.0354 19.1072 66.9508 16.9051 64.3041 16.8273C64.2943 16.827 64.2845 16.8269 64.2747 16.8269H27.328C25.316 16.7919 23.5123 18.0637 22.8702 19.9716C22.694 20.495 22.9755 21.0622 23.4989 21.2384C24.0223 21.4145 24.5895 21.133 24.7657 20.6096ZM21.1585 26.2185C20.3501 26.2185 19.6948 26.8739 19.6948 27.6823V32.6097C19.6948 33.162 19.2471 33.6097 18.6948 33.6097C18.1425 33.6097 17.6948 33.162 17.6948 32.6097V27.6823C17.6948 25.7693 19.2455 24.2185 21.1585 24.2185H35.9409C37.8538 24.2185 39.4046 25.7693 39.4046 27.6823V47.3921C39.4046 49.3052 37.8538 50.8558 35.9409 50.8558H31.0134C30.4611 50.8558 30.0134 50.4081 30.0134 49.8558C30.0134 49.3035 30.4611 48.8558 31.0134 48.8558H35.9409C36.7493 48.8558 37.4046 48.2005 37.4046 47.3921V27.6823C37.4046 26.8739 36.7493 26.2185 35.9409 26.2185H21.1585ZM12.3043 38.8408C12.3043 38.6729 12.4405 38.5366 12.6087 38.5366H24.7824C24.9504 38.5366 25.0868 38.6729 25.0868 38.8409V58.4058C25.0868 58.5738 24.9504 58.7101 24.7824 58.7101H12.6087C12.4406 58.7101 12.3043 58.5739 12.3043 58.4058V38.8408ZM12.6087 36.5366C11.3361 36.5366 10.3043 37.5682 10.3043 38.8408V58.4058C10.3043 59.6785 11.336 60.7101 12.6087 60.7101H24.7824C26.0549 60.7101 27.0868 59.6785 27.0868 58.4058V38.8409C27.0868 37.5682 26.0549 36.5366 24.7824 36.5366H12.6087Z" fill="#045DE9"/>
<path fill-rule="evenodd" clip-rule="evenodd" d="M24.7657 20.6096C25.1304 19.526 26.1559 18.8043 27.2992 18.8267L27.3188 18.8269H64.259C65.8012 18.8795 67.0133 20.1674 66.9707 21.7117C66.9705 21.7209 66.9703 21.7301 66.9703 21.7393V43.9283H43.3334C42.7812 43.9283 42.3334 44.376 42.3334 44.9283C42.3334 45.4806 42.7812 45.9283 43.3334 45.9283H66.9703V50.8704L66.9705 50.8881L66.9707 50.8979C67.0133 52.4422 65.8012 53.7302 64.259 53.7828H31.0144C30.4621 53.7828 30.0144 54.2305 30.0144 54.7828C30.0144 55.3351 30.4621 55.7828 31.0144 55.7828H44.7957V58.7105H34.71C34.1577 58.7105 33.71 59.1582 33.71 59.7105C33.71 60.2628 34.1577 60.7105 34.71 60.7105H56.8836C57.4359 60.7105 57.8836 60.2628 57.8836 59.7105C57.8836 59.1582 57.4359 58.7105 56.8836 58.7105H46.7957V55.7828H64.2747L64.2879 55.7827L64.3041 55.7823C66.9508 55.7046 69.0354 53.5024 68.9703 50.8574V44.957C68.9706 44.9475 68.9708 44.9379 68.9708 44.9283L68.9707 44.915L68.9703 44.8996V21.7522C69.0354 19.1072 66.9508 16.9051 64.3041 16.8273C64.2943 16.827 64.2845 16.8269 64.2747 16.8269H27.328C25.316 16.7919 23.5123 18.0637 22.8702 19.9716C22.694 20.495 22.9755 21.0622 23.4989 21.2384C24.0223 21.4145 24.5895 21.133 24.7657 20.6096ZM21.1585 26.2185C20.3501 26.2185 19.6948 26.8739 19.6948 27.6823V32.6097C19.6948 33.162 19.2471 33.6097 18.6948 33.6097C18.1425 33.6097 17.6948 33.162 17.6948 32.6097V27.6823C17.6948 25.7693 19.2455 24.2185 21.1585 24.2185H35.9409C37.8538 24.2185 39.4046 25.7693 39.4046 27.6823V47.3921C39.4046 49.3052 37.8538 50.8558 35.9409 50.8558H31.0134C30.4611 50.8558 30.0134 50.4081 30.0134 49.8558C30.0134 49.3035 30.4611 48.8558 31.0134 48.8558H35.9409C36.7493 48.8558 37.4046 48.2005 37.4046 47.3921V27.6823C37.4046 26.8739 36.7493 26.2185 35.9409 26.2185H21.1585ZM12.3043 38.8408C12.3043 38.6729 12.4405 38.5366 12.6087 38.5366H24.7824C24.9504 38.5366 25.0868 38.6729 25.0868 38.8409V58.4058C25.0868 58.5738 24.9504 58.7101 24.7824 58.7101H12.6087C12.4406 58.7101 12.3043 58.5739 12.3043 58.4058V38.8408ZM12.6087 36.5366C11.3361 36.5366 10.3043 37.5682 10.3043 38.8408V58.4058C10.3043 59.6785 11.336 60.7101 12.6087 60.7101H24.7824C26.0549 60.7101 27.0868 59.6785 27.0868 58.4058V38.8409C27.0868 37.5682 26.0549 36.5366 24.7824 36.5366H12.6087Z" fill="url(#paint0_linear_1020_762)"/>
</g>
<defs>
<linearGradient id="paint0_linear_1020_762" x1="22.8179" y1="59.8444" x2="71.2096" y2="45.2375" gradientUnits="userSpaceOnUse">
<stop stop-color="#045DE9"/>
<stop offset="1" stop-color="#09C6F9" stop-opacity="0.74"/>
</linearGradient>
<clipPath id="clip0_1020_762">
<rect width="60" height="45.6522" fill="white" transform="translate(10 16.522)"/>
</clipPath>
</defs>
</svg>
