<svg width="81" height="80" viewBox="0 0 81 80" fill="none" xmlns="http://www.w3.org/2000/svg">
<path d="M38.0657 24.3481H36.4223C35.9343 22.4581 34.9259 20.7428 33.5118 19.3973C32.0977 18.0517 30.3345 17.1298 28.4226 16.7362C26.5107 16.3427 24.5267 16.4933 22.6962 17.171C20.8656 17.8487 19.2618 19.0262 18.067 20.5699C16.8723 22.1135 16.1344 23.9613 15.9374 25.9033C15.7403 27.8453 16.0919 29.8037 16.9522 31.5558C17.8126 33.308 19.1471 34.7837 20.8042 35.8153C22.4614 36.8469 24.3746 37.393 26.3266 37.3915H38.0657C39.7954 37.3915 41.4542 36.7044 42.6773 35.4814C43.9004 34.2583 44.5875 32.5995 44.5875 30.8698C44.5875 29.1401 43.9004 27.4813 42.6773 26.2582C41.4542 25.0352 39.7954 24.3481 38.0657 24.3481Z" stroke="#045DE9" stroke-width="2" stroke-linecap="round" stroke-linejoin="round"/>
<path d="M38.0657 24.3481H36.4223C35.9343 22.4581 34.9259 20.7428 33.5118 19.3973C32.0977 18.0517 30.3345 17.1298 28.4226 16.7362C26.5107 16.3427 24.5267 16.4933 22.6962 17.171C20.8656 17.8487 19.2618 19.0262 18.067 20.5699C16.8723 22.1135 16.1344 23.9613 15.9374 25.9033C15.7403 27.8453 16.0919 29.8037 16.9522 31.5558C17.8126 33.308 19.1471 34.7837 20.8042 35.8153C22.4614 36.8469 24.3746 37.393 26.3266 37.3915H38.0657C39.7954 37.3915 41.4542 36.7044 42.6773 35.4814C43.9004 34.2583 44.5875 32.5995 44.5875 30.8698C44.5875 29.1401 43.9004 27.4813 42.6773 26.2582C41.4542 25.0352 39.7954 24.3481 38.0657 24.3481Z" stroke="url(#paint0_linear_1020_721)" stroke-width="2" stroke-linecap="round" stroke-linejoin="round"/>
<path fill-rule="evenodd" clip-rule="evenodd" d="M63.0879 41.3046C63.0879 30.6787 54.6361 22.0039 44.0145 21.4889C43.4629 21.4622 43.0146 21.017 43.0146 20.4647V20.1306C43.0146 19.5783 43.4634 19.1283 44.0152 19.1523C55.9413 19.6696 65.4494 29.3896 65.4494 41.3046C65.4494 53.5508 55.405 63.4785 43.0146 63.4785C30.9634 63.4785 21.1316 54.0869 20.6023 42.305C20.5775 41.7533 21.0276 41.3046 21.5799 41.3046H21.9415C22.4937 41.3046 22.9388 41.7528 22.9665 42.3044C23.2893 48.7319 26.7068 54.3543 31.7768 57.7462C31.9187 57.3552 32.0928 56.9641 32.3027 56.5731C33.1609 54.944 35.3997 54.1725 38.7528 53.0171L39.1208 52.8902L39.7137 52.5833C39.8124 52.481 39.7795 52.2424 39.7466 52.0037L39.7466 52.0036L39.7465 52.003C39.7301 51.8838 39.7137 51.7648 39.7137 51.6626C38.5279 50.435 37.6386 48.9004 37.6386 45.8314C37.6386 42.4554 40.1583 40.0002 43.4191 40.0002C46.68 40.0002 49.0515 42.4554 49.0515 45.8314C49.0515 48.9004 48.3104 50.435 46.9764 51.816V52.7368L47.5693 52.8902L47.9372 53.0171C51.2902 54.1725 53.5291 54.944 54.3874 56.5731C54.5171 56.8417 54.6397 57.1176 54.7521 57.4009C59.8016 53.7977 63.0879 47.9304 63.0879 41.3046ZM52.3016 58.8979C52.1837 58.5212 52.0363 58.1499 51.8677 57.8007C51.5712 57.1869 48.9033 56.2662 46.68 55.4989L45.7907 55.192C45.346 55.0386 44.6049 54.5782 44.3085 53.3506C44.1602 52.4299 44.1602 50.7419 45.0496 49.8212C45.7907 48.9004 46.3835 48.1332 46.3835 45.6779C46.3835 42.7623 44.012 42.6089 43.4191 42.6089C42.8263 42.6089 40.4548 42.9158 40.4548 45.6779C40.4548 48.1332 41.0476 49.0539 41.7887 49.8212C42.5298 50.7419 42.5298 52.4299 42.3816 53.3506C42.0852 54.5782 41.1959 55.0386 40.8994 55.192L39.8619 55.6524C39.5317 55.7745 39.1826 55.9005 38.8279 56.0285C36.9541 56.7049 34.9234 57.4381 34.6742 57.9542C34.4861 58.3437 34.3245 58.7333 34.2006 59.1344C36.8613 60.4217 39.8526 61.1443 43.0146 61.1443C46.3654 61.1443 49.5245 60.3329 52.3016 58.8979Z" fill="#045DE9"/>
<path fill-rule="evenodd" clip-rule="evenodd" d="M63.0879 41.3046C63.0879 30.6787 54.6361 22.0039 44.0145 21.4889C43.4629 21.4622 43.0146 21.017 43.0146 20.4647V20.1306C43.0146 19.5783 43.4634 19.1283 44.0152 19.1523C55.9413 19.6696 65.4494 29.3896 65.4494 41.3046C65.4494 53.5508 55.405 63.4785 43.0146 63.4785C30.9634 63.4785 21.1316 54.0869 20.6023 42.305C20.5775 41.7533 21.0276 41.3046 21.5799 41.3046H21.9415C22.4937 41.3046 22.9388 41.7528 22.9665 42.3044C23.2893 48.7319 26.7068 54.3543 31.7768 57.7462C31.9187 57.3552 32.0928 56.9641 32.3027 56.5731C33.1609 54.944 35.3997 54.1725 38.7528 53.0171L39.1208 52.8902L39.7137 52.5833C39.8124 52.481 39.7795 52.2424 39.7466 52.0037L39.7466 52.0036L39.7465 52.003C39.7301 51.8838 39.7137 51.7648 39.7137 51.6626C38.5279 50.435 37.6386 48.9004 37.6386 45.8314C37.6386 42.4554 40.1583 40.0002 43.4191 40.0002C46.68 40.0002 49.0515 42.4554 49.0515 45.8314C49.0515 48.9004 48.3104 50.435 46.9764 51.816V52.7368L47.5693 52.8902L47.9372 53.0171C51.2902 54.1725 53.5291 54.944 54.3874 56.5731C54.5171 56.8417 54.6397 57.1176 54.7521 57.4009C59.8016 53.7977 63.0879 47.9304 63.0879 41.3046ZM52.3016 58.8979C52.1837 58.5212 52.0363 58.1499 51.8677 57.8007C51.5712 57.1869 48.9033 56.2662 46.68 55.4989L45.7907 55.192C45.346 55.0386 44.6049 54.5782 44.3085 53.3506C44.1602 52.4299 44.1602 50.7419 45.0496 49.8212C45.7907 48.9004 46.3835 48.1332 46.3835 45.6779C46.3835 42.7623 44.012 42.6089 43.4191 42.6089C42.8263 42.6089 40.4548 42.9158 40.4548 45.6779C40.4548 48.1332 41.0476 49.0539 41.7887 49.8212C42.5298 50.7419 42.5298 52.4299 42.3816 53.3506C42.0852 54.5782 41.1959 55.0386 40.8994 55.192L39.8619 55.6524C39.5317 55.7745 39.1826 55.9005 38.8279 56.0285C36.9541 56.7049 34.9234 57.4381 34.6742 57.9542C34.4861 58.3437 34.3245 58.7333 34.2006 59.1344C36.8613 60.4217 39.8526 61.1443 43.0146 61.1443C46.3654 61.1443 49.5245 60.3329 52.3016 58.8979Z" fill="url(#paint1_linear_1020_721)"/>
<defs>
<linearGradient id="paint0_linear_1020_721" x1="22.0064" y1="36.9796" x2="45.5674" y2="29.663" gradientUnits="userSpaceOnUse">
<stop stop-color="#045DE9"/>
<stop offset="1" stop-color="#09C6F9" stop-opacity="0.74"/>
</linearGradient>
<linearGradient id="paint1_linear_1020_721" x1="30.1673" y1="62.6036" x2="68.5287" y2="53.8403" gradientUnits="userSpaceOnUse">
<stop stop-color="#045DE9"/>
<stop offset="1" stop-color="#09C6F9" stop-opacity="0.74"/>
</linearGradient>
</defs>
</svg>
