<svg width="81" height="80" viewBox="0 0 81 80" fill="none" xmlns="http://www.w3.org/2000/svg">
<g clip-path="url(#clip0_1020_676)">
<path fill-rule="evenodd" clip-rule="evenodd" d="M20.898 16.3913C20.7539 16.3913 20.6371 16.5081 20.6371 16.6522V53.1739C20.6371 53.318 20.7539 53.4348 20.898 53.4348H49.5937C49.7377 53.4348 49.8545 53.318 49.8545 53.1739V16.6522C49.8545 16.5081 49.7377 16.3913 49.5937 16.3913H20.898ZM18.2893 16.6522C18.2893 15.2114 19.4573 14.0435 20.898 14.0435H49.5937C51.0344 14.0435 52.2024 15.2114 52.2024 16.6522V19.1303H54.6811C56.1219 19.1303 57.2898 20.2982 57.2898 21.739V25.652H59.8985C61.3393 25.652 62.5072 26.82 62.5072 28.2607V63.4781C62.5072 64.9189 61.3393 66.0868 59.8985 66.0868H31.2029C29.7621 66.0868 28.5942 64.9189 28.5942 63.4781V60.8694H24.6811C23.2404 60.8694 22.0724 59.7015 22.0724 58.2607V55.7826H20.898C19.4573 55.7826 18.2893 54.6146 18.2893 53.1739V16.6522ZM52.2024 53.1739V21.4781H54.6811C54.8252 21.4781 54.942 21.5949 54.942 21.739V58.2607C54.942 58.4048 54.8252 58.5216 54.6811 58.5216H24.6811C24.537 58.5216 24.4203 58.4048 24.4203 58.2607V55.7826H49.5937C51.0344 55.7826 52.2024 54.6146 52.2024 53.1739ZM57.2898 27.9999V58.2607C57.2898 59.7015 56.1219 60.8694 54.6811 60.8694H30.942V63.4781C30.942 63.6222 31.0588 63.739 31.2029 63.739H59.8985C60.0426 63.739 60.1594 63.6222 60.1594 63.4781V28.2607C60.1594 28.1166 60.0426 27.9999 59.8985 27.9999H57.2898ZM25.2128 32.0776C25.1787 32.136 25.1639 32.1613 25.0724 32.3321C24.9616 32.5387 24.6083 32.5522 24.6945 32.1783C24.7516 31.9314 24.749 31.9542 24.7461 31.9796C24.7446 31.9927 24.743 32.0064 24.7494 31.9846C26.0421 27.5705 30.1132 24.3477 34.9355 24.3477C40.7981 24.3477 45.5507 29.1105 45.5507 34.9861C45.5507 40.8614 40.7981 45.6245 34.9355 45.6245C34.7157 45.6245 34.4975 45.6176 34.2809 45.6044C34.0376 45.5895 33.9725 45.3219 34.1713 45.2009C34.8968 44.7575 35.543 44.1889 36.0826 43.5653C36.6968 42.8558 37.2389 41.9365 37.6128 41.0186C37.7788 40.6114 37.1427 40.0194 36.6983 40.7247C35.8679 41.7844 35.2071 42.2916 34.8665 42.5085C34.5758 42.6526 34.2732 42.7783 33.9932 42.8692C30.9584 43.856 28.8724 41.7822 27.8893 40.1641C26.1601 37.3187 26.4622 31.8985 28.8829 30.1271C29.5974 29.6045 31.099 28.9307 32.4317 29.4864C33.4351 29.905 33.522 30.5074 33.6349 31.2897C33.6795 31.5989 33.7282 31.9362 33.8391 32.3013L33.8267 32.3023C33.8267 32.3023 33.9681 33.1614 34.6853 33.5894C34.6885 33.5941 34.6918 33.5989 34.6951 33.6037C34.6978 33.6075 34.7004 33.6114 34.703 33.6153C34.7216 33.62 34.7412 33.6253 34.7609 33.631C34.7688 33.6351 34.7768 33.6393 34.7848 33.6435C34.9521 33.7315 35.148 33.8346 35.3763 33.8591C35.6508 33.9254 35.9544 33.9134 36.2642 33.8288C37.3947 33.5199 37.7012 31.9868 37.0451 30.9102C36.1422 29.4292 34.415 28.3262 32.095 28.2132V28.2051C30.7594 28.1633 29.9887 28.3873 29.7291 28.4808C28.0759 28.876 26.9763 29.8647 26.4759 30.4079C26.0282 30.8442 25.6073 31.3971 25.2379 32.0345C25.2281 32.0514 25.22 32.0652 25.2128 32.0776Z" fill="#045DE9"/>
<path fill-rule="evenodd" clip-rule="evenodd" d="M20.898 16.3913C20.7539 16.3913 20.6371 16.5081 20.6371 16.6522V53.1739C20.6371 53.318 20.7539 53.4348 20.898 53.4348H49.5937C49.7377 53.4348 49.8545 53.318 49.8545 53.1739V16.6522C49.8545 16.5081 49.7377 16.3913 49.5937 16.3913H20.898ZM18.2893 16.6522C18.2893 15.2114 19.4573 14.0435 20.898 14.0435H49.5937C51.0344 14.0435 52.2024 15.2114 52.2024 16.6522V19.1303H54.6811C56.1219 19.1303 57.2898 20.2982 57.2898 21.739V25.652H59.8985C61.3393 25.652 62.5072 26.82 62.5072 28.2607V63.4781C62.5072 64.9189 61.3393 66.0868 59.8985 66.0868H31.2029C29.7621 66.0868 28.5942 64.9189 28.5942 63.4781V60.8694H24.6811C23.2404 60.8694 22.0724 59.7015 22.0724 58.2607V55.7826H20.898C19.4573 55.7826 18.2893 54.6146 18.2893 53.1739V16.6522ZM52.2024 53.1739V21.4781H54.6811C54.8252 21.4781 54.942 21.5949 54.942 21.739V58.2607C54.942 58.4048 54.8252 58.5216 54.6811 58.5216H24.6811C24.537 58.5216 24.4203 58.4048 24.4203 58.2607V55.7826H49.5937C51.0344 55.7826 52.2024 54.6146 52.2024 53.1739ZM57.2898 27.9999V58.2607C57.2898 59.7015 56.1219 60.8694 54.6811 60.8694H30.942V63.4781C30.942 63.6222 31.0588 63.739 31.2029 63.739H59.8985C60.0426 63.739 60.1594 63.6222 60.1594 63.4781V28.2607C60.1594 28.1166 60.0426 27.9999 59.8985 27.9999H57.2898ZM25.2128 32.0776C25.1787 32.136 25.1639 32.1613 25.0724 32.3321C24.9616 32.5387 24.6083 32.5522 24.6945 32.1783C24.7516 31.9314 24.749 31.9542 24.7461 31.9796C24.7446 31.9927 24.743 32.0064 24.7494 31.9846C26.0421 27.5705 30.1132 24.3477 34.9355 24.3477C40.7981 24.3477 45.5507 29.1105 45.5507 34.9861C45.5507 40.8614 40.7981 45.6245 34.9355 45.6245C34.7157 45.6245 34.4975 45.6176 34.2809 45.6044C34.0376 45.5895 33.9725 45.3219 34.1713 45.2009C34.8968 44.7575 35.543 44.1889 36.0826 43.5653C36.6968 42.8558 37.2389 41.9365 37.6128 41.0186C37.7788 40.6114 37.1427 40.0194 36.6983 40.7247C35.8679 41.7844 35.2071 42.2916 34.8665 42.5085C34.5758 42.6526 34.2732 42.7783 33.9932 42.8692C30.9584 43.856 28.8724 41.7822 27.8893 40.1641C26.1601 37.3187 26.4622 31.8985 28.8829 30.1271C29.5974 29.6045 31.099 28.9307 32.4317 29.4864C33.4351 29.905 33.522 30.5074 33.6349 31.2897C33.6795 31.5989 33.7282 31.9362 33.8391 32.3013L33.8267 32.3023C33.8267 32.3023 33.9681 33.1614 34.6853 33.5894C34.6885 33.5941 34.6918 33.5989 34.6951 33.6037C34.6978 33.6075 34.7004 33.6114 34.703 33.6153C34.7216 33.62 34.7412 33.6253 34.7609 33.631C34.7688 33.6351 34.7768 33.6393 34.7848 33.6435C34.9521 33.7315 35.148 33.8346 35.3763 33.8591C35.6508 33.9254 35.9544 33.9134 36.2642 33.8288C37.3947 33.5199 37.7012 31.9868 37.0451 30.9102C36.1422 29.4292 34.415 28.3262 32.095 28.2132V28.2051C30.7594 28.1633 29.9887 28.3873 29.7291 28.4808C28.0759 28.876 26.9763 29.8647 26.4759 30.4079C26.0282 30.8442 25.6073 31.3971 25.2379 32.0345C25.2281 32.0514 25.22 32.0652 25.2128 32.0776Z" fill="url(#paint0_linear_1020_676)"/>
</g>
<defs>
<linearGradient id="paint0_linear_1020_676" x1="27.7208" y1="65.0596" x2="66.1044" y2="57.6963" gradientUnits="userSpaceOnUse">
<stop stop-color="#045DE9"/>
<stop offset="1" stop-color="#09C6F9" stop-opacity="0.74"/>
</linearGradient>
<clipPath id="clip0_1020_676">
<rect width="44.3478" height="52.1739" fill="white" transform="translate(18.1594 13.9131)"/>
</clipPath>
</defs>
</svg>
