<svg width="31" height="31" viewBox="0 0 31 31" fill="none" xmlns="http://www.w3.org/2000/svg">
<path opacity="0.5" d="M30.488 15.622C30.488 23.697 23.942 30.243 15.866 30.243C7.79102 30.243 1.24402 23.697 1.24402 15.622C1.24402 7.546 7.79102 1 15.866 1C23.942 1 30.488 7.546 30.488 15.622" stroke="#042D43"/>
<path opacity="0.5" fill-rule="evenodd" clip-rule="evenodd" d="M23.9451 10.6118C23.4381 10.8408 22.8781 10.9798 22.3321 11.0718C22.5911 11.0278 22.9721 10.5588 23.1251 10.3688C23.3581 10.0788 23.5511 9.74877 23.6601 9.39277L23.6571 9.30877L23.5711 9.31577C22.9611 9.64277 22.3301 9.87877 21.6581 10.0468L21.5271 10.0128L21.3601 9.84177C21.0771 9.60177 20.7751 9.41277 20.4341 9.27377C19.9861 9.09077 19.4951 9.01377 19.0131 9.04477C18.5431 9.07577 18.0821 9.20777 17.6651 9.42577C17.2471 9.64377 16.8751 9.94777 16.5781 10.3138C16.2711 10.6928 16.0451 11.1398 15.9291 11.6138C15.8171 12.0718 15.8261 12.5248 15.8951 12.9868L15.8281 13.0638C13.2021 12.6728 11.0261 11.7338 9.25808 9.71977C9.18208 9.63177 9.14008 9.63177 9.07708 9.72677C8.30408 10.8858 8.67908 12.7478 9.64508 13.6628C9.77408 13.7848 9.90708 13.9068 10.0491 14.0178C9.99608 14.0288 9.35408 13.9588 8.78108 13.6628L8.65808 13.7288C8.65208 13.8548 8.66208 13.9698 8.68008 14.1058C8.82808 15.2808 9.64208 16.3678 10.7561 16.7908C10.8891 16.8468 11.0341 16.8958 11.1771 16.9198C10.9231 16.9758 10.6621 17.0158 9.93408 16.9588C9.84308 16.9408 9.80908 16.9868 9.84308 17.0738C10.3911 18.5648 11.5721 19.0088 12.4561 19.2618C12.5741 19.2818 12.6931 19.2818 12.8121 19.3098L12.7901 19.3308C12.4971 19.7778 11.4801 20.1108 11.0061 20.2768C10.1451 20.5778 9.20708 20.7128 8.29608 20.6238C8.15108 20.6018 8.12008 20.6038 8.08008 20.6238L8.12208 20.7208C8.30708 20.8428 8.49508 20.9508 8.68708 21.0558C9.26508 21.3618 9.86708 21.6058 10.4981 21.7798C13.7531 22.6788 17.4201 22.0178 19.8651 19.5898C21.7841 17.6828 22.4571 15.0528 22.4571 12.4188C22.4571 12.3158 22.5781 12.2598 22.6511 12.2048C23.1511 11.8298 23.5531 11.3808 23.9261 10.8788C24.0091 10.7668 24.0101 10.6668 24.0101 10.6248V10.6118H23.9451Z" fill="#042D43"/>
</svg>
