<svg width="100" height="100" viewBox="0 0 100 100" fill="none" xmlns="http://www.w3.org/2000/svg">
<path fill-rule="evenodd" clip-rule="evenodd" d="M9.24891 37.6972C9.10464 37.9443 9.04216 38.0512 8.65519 38.7738C8.18648 39.6479 6.69207 39.7048 7.05674 38.1231C7.29832 37.0789 7.28723 37.1755 7.27489 37.2829C7.26855 37.3381 7.26188 37.3961 7.28899 37.3038C12.7569 18.6324 29.9774 5 50.3758 5C75.1744 5 95.2775 25.1466 95.2775 50C95.2775 74.8524 75.1744 95 50.3758 95C49.4457 95 48.523 94.971 47.6066 94.9152C46.5777 94.8521 46.3024 93.7203 47.1431 93.2083C50.2118 91.3328 52.9453 88.9276 55.2279 86.2897C57.8258 83.2886 60.1189 79.4 61.7005 75.5176C62.4025 73.7952 59.7122 71.2907 57.8321 74.2741C54.3199 78.7566 51.5244 80.9021 50.0836 81.8196C48.854 82.429 47.574 82.9607 46.3896 83.3455C33.5526 87.5197 24.7291 78.7472 20.5706 71.9031C13.2561 59.8669 14.5341 36.9397 24.7732 29.4469C27.7957 27.2362 34.1474 24.3862 39.7846 26.7366C44.0289 28.5071 44.3967 31.0556 44.8742 34.3645C45.063 35.6724 45.2689 37.099 45.7381 38.6434L45.6855 38.6476C45.6855 38.6476 46.2835 42.2817 49.3175 44.0921C49.3278 44.1075 49.3385 44.123 49.3493 44.1385C49.3637 44.1594 49.3783 44.1804 49.3921 44.2017C49.4709 44.2214 49.554 44.2441 49.637 44.2679L49.7382 44.3212C50.4457 44.6934 51.2745 45.1295 52.2401 45.2331C53.4014 45.5135 54.6856 45.4628 55.9961 45.1048C60.7778 43.7983 62.0747 37.3131 59.2992 32.7593C55.4801 26.4945 48.1741 21.829 38.3606 21.351V21.3169C32.7108 21.14 29.4509 22.0876 28.3526 22.4828C21.3598 24.1545 16.7084 28.3369 14.5919 30.6345C12.6981 32.48 10.9178 34.819 9.35511 37.5148C9.31415 37.5855 9.28045 37.6432 9.25033 37.6948L9.24905 37.697L9.24891 37.6972ZM21.6554 56.4857C21.7675 57.7403 21.9527 58.9836 22.2108 60.1986C22.6451 62.2434 24.8726 63.6125 27.3645 63.6125H46.6172C49.4711 63.6125 51.7847 61.6845 51.7847 59.3062C51.7847 56.928 49.4711 55 46.6172 55H23.3427C22.3671 55 21.583 55.6749 21.6554 56.4857ZM70.9077 59.5774C70.9077 61.2769 69.5563 62.6547 67.8893 62.6547C66.2222 62.6547 64.8708 61.2769 64.8708 59.5774C64.8708 57.8778 66.2222 56.5 67.8893 56.5C69.5563 56.5 70.9077 57.8778 70.9077 59.5774ZM58.3778 62.8206C60.3994 62.8206 62.0381 61.1818 62.0381 59.1603C62.0381 57.1388 60.3994 55.5 58.3778 55.5C56.3563 55.5 54.7176 57.1388 54.7176 59.1603C54.7176 61.1818 56.3563 62.8206 58.3778 62.8206Z" fill="url(#paint0_radial_1020_204)" style="mix-blend-mode:darken"/>
<defs>
<radialGradient id="paint0_radial_1020_204" cx="0" cy="0" r="1" gradientUnits="userSpaceOnUse" gradientTransform="translate(69.0096 95) rotate(-109.692) scale(92.8718 91.0944)">
<stop offset="0.442708" stop-color="#042D43"/>
<stop offset="0.932292" stop-color="#03A9F4" stop-opacity="0.74026"/>
</radialGradient>
</defs>
</svg>
