<svg width="60" height="60" viewBox="0 0 60 60" fill="none" xmlns="http://www.w3.org/2000/svg">
<path fill-rule="evenodd" clip-rule="evenodd" d="M15.5142 7.82617C14.1497 7.82617 13.0435 8.9702 13.0435 10.3814V46.6588C13.0435 48.0702 14.1497 49.2141 15.5142 49.2141H43.9109C45.2754 49.2141 46.3817 48.0702 46.3817 46.6588V16.7851C46.3815 16.1075 46.1209 15.4576 45.6576 14.9785L39.4656 8.57477C39.0024 8.09559 38.3739 7.82632 37.7187 7.82617H15.5142ZM14.6153 10.1812C14.6678 9.73615 15.0344 9.39139 15.4789 9.39139H26.1667H37.6834C37.914 9.39149 38.1353 9.4864 38.2984 9.6551L44.4906 16.059C44.6538 16.2277 44.7454 16.4566 44.7456 16.6951V46.5685C44.7456 47.0655 44.3561 47.4683 43.8755 47.4683H15.4789C14.9984 47.4683 14.6089 47.0655 14.6089 46.5685V10.2911C14.6089 10.2539 14.6111 10.2173 14.6153 10.1812ZM27.8776 15.023C28.2161 14.5959 28.7223 14.3479 29.2568 14.3479C29.7913 14.3479 30.2973 14.5959 30.6359 15.023L39.7135 25.9461C39.7201 25.9541 39.7266 25.9623 39.733 25.9706C40.3729 26.8033 40.4209 27.9675 39.8521 28.8537C39.8495 28.8578 39.8468 28.8618 39.8441 28.8659C39.8409 28.8707 39.8377 28.8754 39.8344 28.8802L30.6101 42.0978C30.3181 42.5798 29.8064 42.874 29.2544 42.874C28.7025 42.874 28.1907 42.5798 27.8987 42.0978L18.6746 28.8851C18.6685 28.8764 18.6625 28.8674 18.6568 28.8585C18.4064 28.4686 18.2755 28.0248 18.262 27.5791L18.2614 27.5544C18.2498 26.9954 18.4227 26.435 18.7758 25.9754C18.7822 25.9671 18.7887 25.959 18.7954 25.9509L27.8776 15.023ZM20.6601 28.901L26.7879 37.6784L23.9555 29.9167L20.6601 28.901ZM24.0575 28.2208L20.0471 26.9846L27.4296 18.1018L24.0575 28.2208ZM31.6546 37.7721L34.5514 29.9174L37.8447 28.9022L31.6546 37.7721ZM38.4649 26.9836L31.0111 18.0144L34.4487 28.2215L38.4649 26.9836ZM25.6868 28.4127H32.8179L29.2336 17.7695L25.6868 28.4127ZM32.7824 30.0685H25.7219L29.2334 39.6915L32.7824 30.0685Z" fill="#045DE9"/>
<path fill-rule="evenodd" clip-rule="evenodd" d="M15.5142 7.82617C14.1497 7.82617 13.0435 8.9702 13.0435 10.3814V46.6588C13.0435 48.0702 14.1497 49.2141 15.5142 49.2141H43.9109C45.2754 49.2141 46.3817 48.0702 46.3817 46.6588V16.7851C46.3815 16.1075 46.1209 15.4576 45.6576 14.9785L39.4656 8.57477C39.0024 8.09559 38.3739 7.82632 37.7187 7.82617H15.5142ZM14.6153 10.1812C14.6678 9.73615 15.0344 9.39139 15.4789 9.39139H26.1667H37.6834C37.914 9.39149 38.1353 9.4864 38.2984 9.6551L44.4906 16.059C44.6538 16.2277 44.7454 16.4566 44.7456 16.6951V46.5685C44.7456 47.0655 44.3561 47.4683 43.8755 47.4683H15.4789C14.9984 47.4683 14.6089 47.0655 14.6089 46.5685V10.2911C14.6089 10.2539 14.6111 10.2173 14.6153 10.1812ZM27.8776 15.023C28.2161 14.5959 28.7223 14.3479 29.2568 14.3479C29.7913 14.3479 30.2973 14.5959 30.6359 15.023L39.7135 25.9461C39.7201 25.9541 39.7266 25.9623 39.733 25.9706C40.3729 26.8033 40.4209 27.9675 39.8521 28.8537C39.8495 28.8578 39.8468 28.8618 39.8441 28.8659C39.8409 28.8707 39.8377 28.8754 39.8344 28.8802L30.6101 42.0978C30.3181 42.5798 29.8064 42.874 29.2544 42.874C28.7025 42.874 28.1907 42.5798 27.8987 42.0978L18.6746 28.8851C18.6685 28.8764 18.6625 28.8674 18.6568 28.8585C18.4064 28.4686 18.2755 28.0248 18.262 27.5791L18.2614 27.5544C18.2498 26.9954 18.4227 26.435 18.7758 25.9754C18.7822 25.9671 18.7887 25.959 18.7954 25.9509L27.8776 15.023ZM20.6601 28.901L26.7879 37.6784L23.9555 29.9167L20.6601 28.901ZM24.0575 28.2208L20.0471 26.9846L27.4296 18.1018L24.0575 28.2208ZM31.6546 37.7721L34.5514 29.9174L37.8447 28.9022L31.6546 37.7721ZM38.4649 26.9836L31.0111 18.0144L34.4487 28.2215L38.4649 26.9836ZM25.6868 28.4127H32.8179L29.2336 17.7695L25.6868 28.4127ZM32.7824 30.0685H25.7219L29.2334 39.6915L32.7824 30.0685Z" fill="url(#paint0_linear_1020_360)"/>
<defs>
<linearGradient id="paint0_linear_1020_360" x1="20.1544" y1="48.3973" x2="49.1981" y2="43.115" gradientUnits="userSpaceOnUse">
<stop stop-color="#045DE9"/>
<stop offset="1" stop-color="#09C6F9" stop-opacity="0.74"/>
</linearGradient>
</defs>
</svg>
