<svg width="101" height="100" viewBox="0 0 101 100" fill="none" xmlns="http://www.w3.org/2000/svg">
<path fill-rule="evenodd" clip-rule="evenodd" d="M25.6232 12.2322C16.7302 18.0195 10.0096 26.8764 6.9555 37.3053C6.87563 37.5773 6.72324 38.1246 6.72324 38.1246C6.35857 39.7063 7.85299 39.6494 8.3217 38.7753C8.70867 38.0527 8.77114 37.9457 8.91541 37.6987L8.91563 37.6983C8.94605 37.6462 8.98011 37.5879 9.02161 37.5163C10.5843 34.8204 12.3646 32.4815 14.2584 30.6359C16.3749 28.3384 21.0263 24.1559 28.0191 22.4842C29.1174 22.0891 32.3773 21.1415 38.0271 21.3184V21.3525C47.8406 21.8304 55.1466 26.4959 58.9657 32.7608C61.7412 37.3146 60.4443 43.7997 55.6626 45.1063C54.3521 45.4642 53.0679 45.5149 51.9066 45.2346C50.941 45.1309 50.1122 44.6949 49.4047 44.3226L49.3035 44.2694C49.2205 44.2456 49.1374 44.2228 49.0586 44.2032C49.0448 44.1819 49.0302 44.1609 49.0158 44.14C49.005 44.1245 48.9943 44.109 48.984 44.0935C45.95 42.2832 45.352 38.649 45.352 38.649L45.4046 38.6449C44.9354 37.1005 44.7295 35.6738 44.5407 34.3659C44.0632 31.057 43.6954 28.5085 39.4511 26.738C33.8139 24.3877 27.4622 27.2377 24.4397 29.4484C18.4932 33.7999 15.5691 43.3573 15.5954 52.9638C16.373 53.4841 17.1951 53.9913 18.0614 54.4838C26.1279 59.0689 37.4725 62 50.1665 62C62.8605 62 74.2051 59.0689 82.2716 54.4838C88.7861 50.7808 92.8027 46.2436 94.1547 41.5568C91.8378 29.3264 84.5823 18.8489 74.5458 12.2864C67.3319 14.6589 59.0037 16 50.1665 16C41.2623 16 32.8747 14.6385 25.6232 12.2322ZM69.7266 9.54463C63.7829 6.63464 57.1029 5.00146 50.0423 5.00146C43.0165 5.00146 36.3678 6.61867 30.4464 9.50196C36.3995 11.098 43.0829 12 50.1665 12C57.1867 12 63.8139 11.1141 69.7266 9.54463ZM20.2371 71.9046C18.2649 68.6593 16.9174 64.6223 16.2018 60.3096C25.2111 65.1299 37.166 68 50.1665 68C63.706 68 76.1114 64.8869 85.2366 59.7C89.0082 57.5561 92.3193 54.9905 94.8972 52.074C93.8166 75.9644 74.1478 95.0015 50.0423 95.0015C49.1122 95.0015 48.1895 94.9725 47.2731 94.9166C46.2442 94.8535 45.9689 93.7218 46.8096 93.2097C49.8783 91.3342 52.6118 88.9291 54.8944 86.2911C57.4923 83.2901 59.7854 79.4015 61.367 75.5191C62.069 73.7966 59.3787 71.2922 57.4986 74.2756C53.9864 78.758 51.1909 80.9035 49.7501 81.8211C48.5205 82.4304 47.2405 82.9622 46.0561 83.347C33.2191 87.5211 24.3956 78.7487 20.2371 71.9046Z" fill="url(#paint0_radial_1266_616)" style="mix-blend-mode:darken"/>
<defs>
<radialGradient id="paint0_radial_1266_616" cx="0" cy="0" r="1" gradientUnits="userSpaceOnUse" gradientTransform="translate(68.6432 95.0015) rotate(-109.682) scale(92.8662 91.0516)">
<stop offset="0.442708" stop-color="#042D43"/>
<stop offset="0.932292" stop-color="#03A9F4" stop-opacity="0.74026"/>
</radialGradient>
</defs>
</svg>
