<svg width="81" height="80" viewBox="0 0 81 80" fill="none" xmlns="http://www.w3.org/2000/svg">
<path d="M39.5482 46.9119C43.2626 46.9119 46.2737 43.9008 46.2737 40.1864C46.2737 36.472 43.2626 33.4609 39.5482 33.4609C35.8339 33.4609 32.8228 36.472 32.8228 40.1864C32.8228 43.9008 35.8339 46.9119 39.5482 46.9119Z" stroke="#045DE9" stroke-width="2.24838"/>
<path d="M39.5482 46.9119C43.2626 46.9119 46.2737 43.9008 46.2737 40.1864C46.2737 36.472 43.2626 33.4609 39.5482 33.4609C35.8339 33.4609 32.8228 36.472 32.8228 40.1864C32.8228 43.9008 35.8339 46.9119 39.5482 46.9119Z" stroke="url(#paint0_linear_1020_730)" stroke-width="2.24838"/>
<path d="M39.5485 27.2246C46.7072 27.2246 52.5105 33.0279 52.5105 40.1867M34.7489 28.1422C29.9663 30.0497 26.5864 34.7236 26.5864 40.1867C26.5864 47.3455 32.3897 53.1488 39.5485 53.1488C40.413 53.1488 41.2578 53.0641 42.075 52.9027" stroke="#045DE9" stroke-width="2.24838" stroke-linecap="round"/>
<path d="M39.5485 27.2246C46.7072 27.2246 52.5105 33.0279 52.5105 40.1867M34.7489 28.1422C29.9663 30.0497 26.5864 34.7236 26.5864 40.1867C26.5864 47.3455 32.3897 53.1488 39.5485 53.1488C40.413 53.1488 41.2578 53.0641 42.075 52.9027" stroke="url(#paint1_linear_1020_730)" stroke-width="2.24838" stroke-linecap="round"/>
<path d="M21.2378 32.6194C21.6782 31.5552 22.2085 30.5375 22.8196 29.5762C26.3335 24.0477 32.5125 20.3794 39.5483 20.3794C41.5005 20.3794 43.3867 20.6618 45.1683 21.188M19.8457 38.1374C19.7764 38.811 19.741 39.4947 19.741 40.1867C19.741 51.126 28.609 59.994 39.5483 59.994C41.2114 59.994 42.8268 59.7891 44.3703 59.403M59.3556 40.1867C59.3556 36.5331 58.3664 33.1105 56.6411 30.1722C56.0046 29.0881 55.2679 28.07 54.4438 27.1304C53.4303 25.9752 52.2846 24.9389 51.0303 24.045" stroke="#045DE9" stroke-width="2.24838" stroke-linecap="round"/>
<path d="M21.2378 32.6194C21.6782 31.5552 22.2085 30.5375 22.8196 29.5762C26.3335 24.0477 32.5125 20.3794 39.5483 20.3794C41.5005 20.3794 43.3867 20.6618 45.1683 21.188M19.8457 38.1374C19.7764 38.811 19.741 39.4947 19.741 40.1867C19.741 51.126 28.609 59.994 39.5483 59.994C41.2114 59.994 42.8268 59.7891 44.3703 59.403M59.3556 40.1867C59.3556 36.5331 58.3664 33.1105 56.6411 30.1722C56.0046 29.0881 55.2679 28.07 54.4438 27.1304C53.4303 25.9752 52.2846 24.9389 51.0303 24.045" stroke="url(#paint2_linear_1020_730)" stroke-width="2.24838" stroke-linecap="round"/>
<path d="M20.8017 21.7791C16.1465 26.5195 13.2754 33.0179 13.2754 40.1867C13.2754 48.0973 16.7714 55.1914 22.3028 60.0082M25.9951 17.6744C29.9524 15.2868 34.5903 13.9131 39.549 13.9131C47.6164 13.9131 54.8345 17.5491 59.6541 23.2717C60.3497 24.0977 60.9955 24.9672 61.5865 25.8755M30.5769 64.8884C33.3764 65.9056 36.398 66.4603 39.549 66.4603C42.1919 66.4603 44.7436 66.07 47.1497 65.344M64.867 33.1407C65.4897 35.383 65.8226 37.746 65.8226 40.1867C65.8226 41.1109 65.7749 42.024 65.6817 42.9236" stroke="#045DE9" stroke-width="2.24838" stroke-linecap="round"/>
<path d="M20.8017 21.7791C16.1465 26.5195 13.2754 33.0179 13.2754 40.1867C13.2754 48.0973 16.7714 55.1914 22.3028 60.0082M25.9951 17.6744C29.9524 15.2868 34.5903 13.9131 39.549 13.9131C47.6164 13.9131 54.8345 17.5491 59.6541 23.2717C60.3497 24.0977 60.9955 24.9672 61.5865 25.8755M30.5769 64.8884C33.3764 65.9056 36.398 66.4603 39.549 66.4603C42.1919 66.4603 44.7436 66.07 47.1497 65.344M64.867 33.1407C65.4897 35.383 65.8226 37.746 65.8226 40.1867C65.8226 41.1109 65.7749 42.024 65.6817 42.9236" stroke="url(#paint3_linear_1020_730)" stroke-width="2.24838" stroke-linecap="round"/>
<path fill-rule="evenodd" clip-rule="evenodd" d="M46.2753 51.8975C46.3861 51.6906 46.3844 51.6972 46.4408 51.5999C46.8102 50.9625 47.2311 50.4096 47.6788 49.9733C48.1792 49.4301 49.2788 48.4414 50.932 48.0462C51.1916 47.9527 51.9623 47.7287 53.2979 47.7705V47.7786C55.6179 47.8916 57.3452 48.9946 58.248 50.4756C58.9042 51.5522 58.5976 53.0853 57.4671 53.3942C57.1573 53.4788 56.8537 53.4908 56.5792 53.4245C56.3399 53.3989 56.1362 53.2869 55.9638 53.1964C55.9442 53.1907 55.9245 53.1854 55.9059 53.1807C55.9002 53.1719 55.894 53.1633 55.8883 53.1548C55.171 52.7268 55.0296 51.8677 55.0296 51.8677L55.042 51.8667C54.6505 50.5779 55.0346 49.6358 53.6346 49.0518C52.3019 48.4962 50.8003 49.1699 50.0858 49.6925C47.6651 51.4639 47.363 56.8841 49.0922 59.7296C50.0753 61.3476 52.1613 63.4214 55.1961 62.4346C55.4761 62.3437 55.7787 62.218 56.0694 62.0739C56.41 61.857 57.0709 61.3498 57.9012 60.2901C58.3456 59.5848 58.9817 60.1769 58.8157 60.5841C58.4418 61.5019 57.8997 62.4212 57.2855 63.1307C56.7459 63.7543 56.0997 64.3229 55.3742 64.7663C55.1755 64.8873 55.2406 65.1549 55.4838 65.1698C55.7004 65.183 55.9186 65.1899 56.1384 65.1899C62.0011 65.1899 66.7536 60.4268 66.7536 54.5515C66.7536 48.6759 62.0011 43.9131 56.1384 43.9131C51.3161 43.9131 47.245 47.1359 45.9524 51.55C45.9335 51.6143 45.9839 51.37 45.8974 51.7437C45.8112 52.1176 46.1645 52.1042 46.2753 51.8975Z" fill="#045DE9"/>
<path fill-rule="evenodd" clip-rule="evenodd" d="M46.2753 51.8975C46.3861 51.6906 46.3844 51.6972 46.4408 51.5999C46.8102 50.9625 47.2311 50.4096 47.6788 49.9733C48.1792 49.4301 49.2788 48.4414 50.932 48.0462C51.1916 47.9527 51.9623 47.7287 53.2979 47.7705V47.7786C55.6179 47.8916 57.3452 48.9946 58.248 50.4756C58.9042 51.5522 58.5976 53.0853 57.4671 53.3942C57.1573 53.4788 56.8537 53.4908 56.5792 53.4245C56.3399 53.3989 56.1362 53.2869 55.9638 53.1964C55.9442 53.1907 55.9245 53.1854 55.9059 53.1807C55.9002 53.1719 55.894 53.1633 55.8883 53.1548C55.171 52.7268 55.0296 51.8677 55.0296 51.8677L55.042 51.8667C54.6505 50.5779 55.0346 49.6358 53.6346 49.0518C52.3019 48.4962 50.8003 49.1699 50.0858 49.6925C47.6651 51.4639 47.363 56.8841 49.0922 59.7296C50.0753 61.3476 52.1613 63.4214 55.1961 62.4346C55.4761 62.3437 55.7787 62.218 56.0694 62.0739C56.41 61.857 57.0709 61.3498 57.9012 60.2901C58.3456 59.5848 58.9817 60.1769 58.8157 60.5841C58.4418 61.5019 57.8997 62.4212 57.2855 63.1307C56.7459 63.7543 56.0997 64.3229 55.3742 64.7663C55.1755 64.8873 55.2406 65.1549 55.4838 65.1698C55.7004 65.183 55.9186 65.1899 56.1384 65.1899C62.0011 65.1899 66.7536 60.4268 66.7536 54.5515C66.7536 48.6759 62.0011 43.9131 56.1384 43.9131C51.3161 43.9131 47.245 47.1359 45.9524 51.55C45.9335 51.6143 45.9839 51.37 45.8974 51.7437C45.8112 52.1176 46.1645 52.1042 46.2753 51.8975Z" fill="url(#paint4_linear_1020_730)"/>
<defs>
<linearGradient id="paint0_linear_1020_730" x1="35.6918" y1="46.6464" x2="47.2105" y2="44.0457" gradientUnits="userSpaceOnUse">
<stop stop-color="#045DE9"/>
<stop offset="1" stop-color="#09C6F9" stop-opacity="0.74"/>
</linearGradient>
<linearGradient id="paint1_linear_1020_730" x1="32.1159" y1="52.6371" x2="54.3158" y2="47.6247" gradientUnits="userSpaceOnUse">
<stop stop-color="#045DE9"/>
<stop offset="1" stop-color="#09C6F9" stop-opacity="0.74"/>
</linearGradient>
<linearGradient id="paint2_linear_1020_730" x1="28.1906" y1="59.2121" x2="62.1144" y2="51.5526" gradientUnits="userSpaceOnUse">
<stop stop-color="#045DE9"/>
<stop offset="1" stop-color="#09C6F9" stop-opacity="0.74"/>
</linearGradient>
<linearGradient id="paint3_linear_1020_730" x1="24.4835" y1="65.4232" x2="69.482" y2="55.2632" gradientUnits="userSpaceOnUse">
<stop stop-color="#045DE9"/>
<stop offset="1" stop-color="#09C6F9" stop-opacity="0.74"/>
</linearGradient>
<linearGradient id="paint4_linear_1020_730" x1="50.3354" y1="64.7699" x2="68.2399" y2="60.8047" gradientUnits="userSpaceOnUse">
<stop stop-color="#045DE9"/>
<stop offset="1" stop-color="#09C6F9" stop-opacity="0.74"/>
</linearGradient>
</defs>
</svg>
