<svg width="81" height="80" viewBox="0 0 81 80" fill="none" xmlns="http://www.w3.org/2000/svg">
<g clip-path="url(#clip0_1020_697)">
<path fill-rule="evenodd" clip-rule="evenodd" d="M43.5433 17.1919C39.3314 17.1919 35.7462 21.059 35.7462 25.3421C35.7462 29.5662 39.2278 33.0337 43.4972 33.0337C43.5279 33.0337 43.5586 33.0352 43.5892 33.0381L44.5592 33.1298C45.0615 33.1772 45.4453 33.5991 45.4453 34.1037V36.4896L48.8919 33.3776C49.0717 33.2153 49.3053 33.1254 49.5475 33.1254H52.7806C57.0433 33.1254 60.5777 29.5728 60.5777 25.3421C60.5777 21.059 56.9925 17.1919 52.7806 17.1919H43.5433ZM33.7897 25.3421C33.7897 20.0838 38.1485 15.2354 43.5433 15.2354H52.7806C58.1755 15.2354 62.5343 20.0838 62.5343 25.3421C62.5343 30.6527 58.1246 35.0819 52.7806 35.0819H49.9238L45.1227 39.417C44.8357 39.6761 44.4231 39.7419 44.0698 39.5849C43.7165 39.4279 43.4888 39.0775 43.4888 38.6909V34.9938L43.4498 34.9901C38.134 34.9646 33.7897 30.6436 33.7897 25.3421ZM24.1637 23.9448C22.3909 23.9448 20.9538 25.3819 20.9538 27.1547V58.5656C20.9538 60.3384 22.3909 61.7754 24.1637 61.7754H38.8221C40.5949 61.7754 42.032 60.3384 42.032 58.5656V43.9072C42.032 43.3669 42.47 42.9289 43.0103 42.9289C43.5505 42.9289 43.9885 43.3669 43.9885 43.9072V58.5656C43.9885 61.419 41.6754 63.7319 38.8221 63.7319H24.1637C21.3104 63.7319 18.9973 61.419 18.9973 58.5656V27.1547C18.9973 24.3014 21.3104 21.9883 24.1637 21.9883H32.54C33.0803 21.9883 33.5183 22.4263 33.5183 22.9665C33.5183 23.5068 33.0803 23.9448 32.54 23.9448H24.1637ZM27.3762 27.1547C27.3762 26.6144 27.8142 26.1765 28.3545 26.1765H32.5426C33.0829 26.1765 33.5209 26.6144 33.5209 27.1547C33.5209 27.695 33.0829 28.133 32.5426 28.133H28.3545C27.8142 28.133 27.3762 27.695 27.3762 27.1547ZM31.9478 58.5655C31.9478 58.8165 31.7443 59.0202 31.4931 59.0202C31.2418 59.0202 31.0383 58.8165 31.0383 58.5655C31.0383 58.3145 31.2417 58.1108 31.4931 58.1108C31.7443 58.1108 31.9478 58.3144 31.9478 58.5655ZM31.4931 57.0636C30.6636 57.0636 29.9913 57.7361 29.9913 58.5655C29.9913 59.3948 30.6636 60.0673 31.4931 60.0673C32.3225 60.0673 32.9948 59.3948 32.9948 58.5655C32.9948 57.7361 32.3225 57.0636 31.4931 57.0636ZM50.6724 21.6668C49.7834 21.5336 48.8673 21.7819 48.1828 22.361C47.4983 21.7819 46.5822 21.5336 45.6931 21.6668C44.7602 21.8065 43.9241 22.3575 43.4705 23.1902L43.4693 23.1924C42.8558 24.3254 43.1063 25.6893 44.0421 26.5588L47.1783 29.5816C47.4536 29.8468 47.8178 29.984 48.1828 29.984C48.5477 29.984 48.9121 29.8471 49.1876 29.5813L52.3234 26.5589C53.2594 25.6893 53.5099 24.3254 52.8962 23.1923L52.8951 23.1902C52.4415 22.3575 51.6055 21.8065 50.6724 21.6668Z" fill="#045DE9"/>
<path fill-rule="evenodd" clip-rule="evenodd" d="M43.5433 17.1919C39.3314 17.1919 35.7462 21.059 35.7462 25.3421C35.7462 29.5662 39.2278 33.0337 43.4972 33.0337C43.5279 33.0337 43.5586 33.0352 43.5892 33.0381L44.5592 33.1298C45.0615 33.1772 45.4453 33.5991 45.4453 34.1037V36.4896L48.8919 33.3776C49.0717 33.2153 49.3053 33.1254 49.5475 33.1254H52.7806C57.0433 33.1254 60.5777 29.5728 60.5777 25.3421C60.5777 21.059 56.9925 17.1919 52.7806 17.1919H43.5433ZM33.7897 25.3421C33.7897 20.0838 38.1485 15.2354 43.5433 15.2354H52.7806C58.1755 15.2354 62.5343 20.0838 62.5343 25.3421C62.5343 30.6527 58.1246 35.0819 52.7806 35.0819H49.9238L45.1227 39.417C44.8357 39.6761 44.4231 39.7419 44.0698 39.5849C43.7165 39.4279 43.4888 39.0775 43.4888 38.6909V34.9938L43.4498 34.9901C38.134 34.9646 33.7897 30.6436 33.7897 25.3421ZM24.1637 23.9448C22.3909 23.9448 20.9538 25.3819 20.9538 27.1547V58.5656C20.9538 60.3384 22.3909 61.7754 24.1637 61.7754H38.8221C40.5949 61.7754 42.032 60.3384 42.032 58.5656V43.9072C42.032 43.3669 42.47 42.9289 43.0103 42.9289C43.5505 42.9289 43.9885 43.3669 43.9885 43.9072V58.5656C43.9885 61.419 41.6754 63.7319 38.8221 63.7319H24.1637C21.3104 63.7319 18.9973 61.419 18.9973 58.5656V27.1547C18.9973 24.3014 21.3104 21.9883 24.1637 21.9883H32.54C33.0803 21.9883 33.5183 22.4263 33.5183 22.9665C33.5183 23.5068 33.0803 23.9448 32.54 23.9448H24.1637ZM27.3762 27.1547C27.3762 26.6144 27.8142 26.1765 28.3545 26.1765H32.5426C33.0829 26.1765 33.5209 26.6144 33.5209 27.1547C33.5209 27.695 33.0829 28.133 32.5426 28.133H28.3545C27.8142 28.133 27.3762 27.695 27.3762 27.1547ZM31.9478 58.5655C31.9478 58.8165 31.7443 59.0202 31.4931 59.0202C31.2418 59.0202 31.0383 58.8165 31.0383 58.5655C31.0383 58.3145 31.2417 58.1108 31.4931 58.1108C31.7443 58.1108 31.9478 58.3144 31.9478 58.5655ZM31.4931 57.0636C30.6636 57.0636 29.9913 57.7361 29.9913 58.5655C29.9913 59.3948 30.6636 60.0673 31.4931 60.0673C32.3225 60.0673 32.9948 59.3948 32.9948 58.5655C32.9948 57.7361 32.3225 57.0636 31.4931 57.0636ZM50.6724 21.6668C49.7834 21.5336 48.8673 21.7819 48.1828 22.361C47.4983 21.7819 46.5822 21.5336 45.6931 21.6668C44.7602 21.8065 43.9241 22.3575 43.4705 23.1902L43.4693 23.1924C42.8558 24.3254 43.1063 25.6893 44.0421 26.5588L47.1783 29.5816C47.4536 29.8468 47.8178 29.984 48.1828 29.984C48.5477 29.984 48.9121 29.8471 49.1876 29.5813L52.3234 26.5589C53.2594 25.6893 53.5099 24.3254 52.8962 23.1923L52.8951 23.1902C52.4415 22.3575 51.6055 21.8065 50.6724 21.6668Z" fill="url(#paint0_linear_1020_697)"/>
<path fill-rule="evenodd" clip-rule="evenodd" d="M21.4684 39.6592C21.5723 39.4653 21.5707 39.4714 21.6235 39.3802C21.9699 38.7827 22.3644 38.2643 22.7842 37.8553C23.2533 37.3461 24.2842 36.4191 25.834 36.0486C26.0774 35.961 26.7999 35.751 28.0521 35.7902V35.7978C30.2271 35.9037 31.8464 36.9377 32.6928 38.3262C33.3079 39.3355 33.0205 40.7728 31.9607 41.0624C31.6703 41.1417 31.3856 41.1529 31.1283 41.0908C30.904 41.0667 30.713 40.9617 30.5513 40.8769C30.5329 40.8716 30.5145 40.8666 30.4971 40.8622C30.4917 40.854 30.4859 40.8459 30.4805 40.8379C29.8081 40.4367 29.6756 39.6312 29.6756 39.6312L29.6872 39.6303C29.3201 38.422 29.6802 37.5389 28.3677 36.9914C27.1183 36.4705 25.7106 37.1021 25.0407 37.5921C22.7714 39.2527 22.4881 44.3341 24.1092 47.0018C25.0309 48.5187 26.9865 50.4629 29.8316 49.5378C30.0941 49.4525 30.3778 49.3346 30.6503 49.1996C30.9697 48.9962 31.5892 48.5207 32.3676 47.5273C32.7843 46.866 33.3806 47.4211 33.225 47.8029C32.8745 48.6633 32.3662 49.5252 31.7905 50.1903C31.2846 50.775 30.6787 51.308 29.9986 51.7237C29.8123 51.8372 29.8733 52.088 30.1013 52.102C30.3044 52.1144 30.5089 52.1208 30.7151 52.1208C36.2113 52.1208 40.6668 47.6554 40.6668 42.1473C40.6668 36.639 36.2113 32.1738 30.7151 32.1738C26.1941 32.1738 22.3775 35.1952 21.1656 39.3334C21.1479 39.3937 21.1952 39.1647 21.1141 39.515C21.0333 39.8656 21.3645 39.853 21.4684 39.6592Z" fill="#045DE9"/>
<path fill-rule="evenodd" clip-rule="evenodd" d="M21.4684 39.6592C21.5723 39.4653 21.5707 39.4714 21.6235 39.3802C21.9699 38.7827 22.3644 38.2643 22.7842 37.8553C23.2533 37.3461 24.2842 36.4191 25.834 36.0486C26.0774 35.961 26.7999 35.751 28.0521 35.7902V35.7978C30.2271 35.9037 31.8464 36.9377 32.6928 38.3262C33.3079 39.3355 33.0205 40.7728 31.9607 41.0624C31.6703 41.1417 31.3856 41.1529 31.1283 41.0908C30.904 41.0667 30.713 40.9617 30.5513 40.8769C30.5329 40.8716 30.5145 40.8666 30.4971 40.8622C30.4917 40.854 30.4859 40.8459 30.4805 40.8379C29.8081 40.4367 29.6756 39.6312 29.6756 39.6312L29.6872 39.6303C29.3201 38.422 29.6802 37.5389 28.3677 36.9914C27.1183 36.4705 25.7106 37.1021 25.0407 37.5921C22.7714 39.2527 22.4881 44.3341 24.1092 47.0018C25.0309 48.5187 26.9865 50.4629 29.8316 49.5378C30.0941 49.4525 30.3778 49.3346 30.6503 49.1996C30.9697 48.9962 31.5892 48.5207 32.3676 47.5273C32.7843 46.866 33.3806 47.4211 33.225 47.8029C32.8745 48.6633 32.3662 49.5252 31.7905 50.1903C31.2846 50.775 30.6787 51.308 29.9986 51.7237C29.8123 51.8372 29.8733 52.088 30.1013 52.102C30.3044 52.1144 30.5089 52.1208 30.7151 52.1208C36.2113 52.1208 40.6668 47.6554 40.6668 42.1473C40.6668 36.639 36.2113 32.1738 30.7151 32.1738C26.1941 32.1738 22.3775 35.1952 21.1656 39.3334C21.1479 39.3937 21.1952 39.1647 21.1141 39.515C21.0333 39.8656 21.3645 39.853 21.4684 39.6592Z" fill="url(#paint1_linear_1020_697)"/>
</g>
<defs>
<linearGradient id="paint0_linear_1020_697" x1="28.2836" y1="62.7748" x2="65.9205" y2="55.1459" gradientUnits="userSpaceOnUse">
<stop stop-color="#045DE9"/>
<stop offset="1" stop-color="#09C6F9" stop-opacity="0.74"/>
</linearGradient>
<linearGradient id="paint1_linear_1020_697" x1="25.2748" y1="51.7271" x2="42.0602" y2="48.0097" gradientUnits="userSpaceOnUse">
<stop stop-color="#045DE9"/>
<stop offset="1" stop-color="#09C6F9" stop-opacity="0.74"/>
</linearGradient>
<clipPath id="clip0_1020_697">
<rect width="44.3478" height="49.5652" fill="white" transform="translate(18.4929 15.2173)"/>
</clipPath>
</defs>
</svg>
