<svg width="32" height="31" viewBox="0 0 32 31" fill="none" xmlns="http://www.w3.org/2000/svg">
<path opacity="0.5" d="M30.732 15.622C30.732 23.697 24.186 30.243 16.11 30.243C8.03504 30.243 1.48804 23.697 1.48804 15.622C1.48804 7.546 8.03504 1 16.11 1C24.186 1 30.732 7.546 30.732 15.622" stroke="#042D43"/>
<path opacity="0.5" fill-rule="evenodd" clip-rule="evenodd" d="M13.0329 10.0169C13.0329 9.11293 12.2999 8.37793 11.3949 8.37793C10.4859 8.37793 9.75293 9.11293 9.75293 10.0169C9.75293 10.9209 10.4859 11.6569 11.3949 11.6569C12.2999 11.6569 13.0329 10.9209 13.0329 10.0169ZM12.8099 21.9949H9.97793V12.8989H12.8099V21.9949ZM17.2959 12.8989H14.5839V21.9949H17.4099V17.4949C17.4099 16.3099 17.6349 15.1599 19.1059 15.1599C20.5559 15.1599 20.5759 16.5169 20.5759 17.5719V21.9949H23.4009V17.0059C23.4009 14.5559 22.8739 12.6729 20.0109 12.6729C18.6339 12.6729 17.7119 13.4269 17.3329 14.1429H17.2959V12.8989Z" fill="#042D43"/>
</svg>
