<svg width="31" height="31" viewBox="0 0 31 31" fill="none" xmlns="http://www.w3.org/2000/svg">
<path opacity="0.5" d="M30.244 15.622C30.244 23.697 23.698 30.243 15.622 30.243C7.547 30.243 1 23.697 1 15.622C1 7.546 7.547 1 15.622 1C23.698 1 30.244 7.546 30.244 15.622" stroke="#042D43"/>
<path opacity="0.5" fill-rule="evenodd" clip-rule="evenodd" d="M21.313 19.8489L21.961 15.6219H17.907V12.8789C17.907 11.7229 18.473 10.5959 20.289 10.5959H22.133V6.99691C22.133 6.99691 20.459 6.71191 18.86 6.71191C15.52 6.71191 13.337 8.73591 13.337 12.3999V15.6219H9.62402V19.8489H13.337V30.0649C14.081 30.1829 14.844 30.2429 15.621 30.2429C16.399 30.2429 17.161 30.1829 17.907 30.0649V19.8489H21.313Z" fill="#042D43"/>
</svg>
