<svg width="170" height="60" viewBox="0 0 170 60" fill="none" xmlns="http://www.w3.org/2000/svg">
<path fill-rule="evenodd" clip-rule="evenodd" d="M66.7959 41.0741H71.0332V15.5186H66.7959V41.0741Z" fill="#042D43"/>
<path fill-rule="evenodd" clip-rule="evenodd" d="M77.3043 18.5253H81.5416V14.4966H77.3043V18.5253ZM77.3043 41.0743H81.5416V21.8475H77.3043V41.0743Z" fill="#042D43"/>
<path fill-rule="evenodd" clip-rule="evenodd" d="M86.6265 41.0741V22.0023H91.0342V24.1759C92.696 22.7735 94.2499 21.6519 96.1284 21.6519C98.9102 21.6519 100.355 23.0195 100.355 26.5599V41.0741H95.8038V27.0507C95.8038 25.7887 95.3698 24.9475 94.1415 24.9475C93.202 24.9475 92.1542 25.8239 91.1788 26.6651V41.0741H86.6265Z" fill="#042D43"/>
<path fill-rule="evenodd" clip-rule="evenodd" d="M105.61 18.5253H109.846V14.4966H105.61V18.5253ZM105.609 41.0743H109.846V21.8475H105.609V41.0743Z" fill="#042D43"/>
<path fill-rule="evenodd" clip-rule="evenodd" d="M113.745 24.0755C113.745 17.7817 117.204 15.5186 122.135 15.5186C127.065 15.5186 130.524 17.7817 130.524 24.0755V33.1986C130.524 39.4925 127.065 41.7556 122.135 41.7556C117.204 41.7556 113.745 39.4925 113.745 33.1986V24.0755ZM118.823 33.8351C118.823 36.6636 120.111 37.4418 122.135 37.4418C124.158 37.4418 125.446 36.6636 125.446 33.8351V23.4391C125.446 20.6106 124.158 19.832 122.135 19.832C120.111 19.832 118.823 20.6106 118.823 23.4391V33.8351Z" fill="#03A9F4"/>
<path fill-rule="evenodd" clip-rule="evenodd" d="M138.625 22.0036V24.3251H138.695C139.459 23.1294 141.407 21.6519 143.354 21.6519C146.761 21.6519 148.152 24.3251 148.152 29.2487V33.8913C148.152 38.8149 146.761 41.4881 143.354 41.4881C142.171 41.4881 141.06 40.9256 138.973 39.3778V47.8889H134.592V22.0036H138.625ZM138.973 36.8104C139.842 37.7598 140.642 38.1822 141.616 38.1822C142.798 38.1822 143.771 37.408 143.771 33.6098V29.5302C143.771 25.7319 142.798 24.9578 141.616 24.9578C140.642 24.9578 139.842 25.3802 138.973 26.3296V36.8104Z" fill="#03A9F4"/>
<path fill-rule="evenodd" clip-rule="evenodd" d="M159.951 27.4888C159.354 25.7825 158.23 24.9634 156.895 24.9634C155.876 24.9634 155.103 25.68 155.103 26.6357C155.103 29.5028 163.745 29.5713 163.745 35.1012C163.745 38.7874 161.075 40.7333 157.387 40.7333C154.717 40.7333 152.329 40.0848 150.185 35.4425L154.155 34.3846C154.541 36.125 155.631 37.2513 157.387 37.2513C158.721 37.2513 159.529 36.6369 159.529 35.6131C159.529 32.0631 150.888 32.9162 150.888 26.6701C150.888 23.1545 153.804 21.4814 156.93 21.4814C160.232 21.4814 162.515 23.3252 163.604 26.1238L159.951 27.4888Z" fill="#03A9F4"/>
<path fill-rule="evenodd" clip-rule="evenodd" d="M4.65148 25.3622C4.83596 25.0159 4.83306 25.027 4.92696 24.8641C5.54204 23.7975 6.24275 22.8721 6.98813 22.142C7.8212 21.2329 9.65198 19.5782 12.4044 18.9168C12.8366 18.7605 14.1197 18.3856 16.3434 18.4556V18.4691C20.206 18.6582 23.0816 20.504 24.5848 22.9826C25.6772 24.7843 25.1668 27.3501 23.2847 27.867C22.7689 28.0086 22.2635 28.0286 21.8064 27.9177C21.4081 27.8747 21.0689 27.6873 20.7818 27.5359C20.7491 27.5265 20.7165 27.5174 20.6854 27.5097C20.6759 27.4949 20.6656 27.4806 20.6561 27.4663C19.4619 26.75 19.2265 25.3122 19.2265 25.3122L19.2472 25.3106C18.5953 23.1537 19.2348 21.5771 16.9039 20.5998C14.6852 19.6699 12.1851 20.7975 10.9955 21.6721C6.96538 24.6365 6.46239 33.7074 9.34128 38.4694C10.9781 41.1772 14.451 44.6479 19.5037 42.9964C19.9698 42.8442 20.4736 42.6338 20.9576 42.3927C21.5247 42.0297 22.625 41.1809 24.0074 39.4075C24.7474 38.2271 25.8063 39.218 25.53 39.8994C24.9075 41.4354 24.0049 42.9739 22.9824 44.1612C22.0839 45.2049 21.0081 46.1565 19.8002 46.8985C19.4693 47.1011 19.5777 47.5489 19.9827 47.5738C20.3433 47.5959 20.7065 47.6074 21.0726 47.6074C30.8333 47.6074 38.7458 39.6362 38.7458 29.8037C38.7458 19.9707 30.8333 12 21.0726 12C13.0438 12 6.26591 17.3935 4.11374 24.7806C4.08231 24.8882 4.16628 24.4794 4.02233 25.1047C3.8788 25.7305 4.46699 25.708 4.65148 25.3622Z" fill="#042D43"/>
<path fill-rule="evenodd" clip-rule="evenodd" d="M50.8573 34.2437C50.8573 37.1091 52.1448 37.8971 54.1688 37.8971C56.1929 37.8971 57.4804 37.1091 57.4804 34.2437V32.5245H62.5587V33.599C62.5587 39.9745 59.0996 42.2672 54.1688 42.2672C49.2385 42.2672 45.7791 39.9745 45.7791 33.599V24.3577C45.7791 17.9818 49.2385 15.6895 54.1688 15.6895C59.0996 15.6895 62.5587 17.9818 62.5587 24.3577V24.4293H57.4804V23.713C57.4804 20.8472 56.1929 20.0592 54.1688 20.0592C52.1448 20.0592 50.8573 20.8472 50.8573 23.713V34.2437Z" fill="#042D43"/>
<path d="M164.314 13.0833L163.596 15.2554H163.237L162.518 13.0891V15.2554H161.875V12.1108H162.669L163.416 14.3295L164.187 12.1108H164.957V15.2554H164.314V13.0833ZM161.447 12.664H160.647V15.2437H159.969V12.664H159.153V12.1108H161.447V12.664Z" fill="#042D43"/>
</svg>
